<svg xmlns="http://www.w3.org/2000/svg" xmlns:xlink="http://www.w3.org/1999/xlink" width="120" zoomAndPan="magnify" viewBox="0 0 90 62.249996" height="83" preserveAspectRatio="xMidYMid meet" version="1.0"><defs><g/><clipPath id="4c739c1935"><path d="M 22.441406 8.277344 L 67.558594 8.277344 L 67.558594 53.394531 L 22.441406 53.394531 Z M 22.441406 8.277344 " clip-rule="nonzero"/></clipPath><clipPath id="59cd82e94a"><path d="M 45 8.277344 C 32.542969 8.277344 22.441406 18.375 22.441406 30.835938 C 22.441406 43.292969 32.542969 53.394531 45 53.394531 C 57.457031 53.394531 67.558594 43.292969 67.558594 30.835938 C 67.558594 18.375 57.457031 8.277344 45 8.277344 " clip-rule="nonzero"/></clipPath><clipPath id="a1a7894ce8"><path d="M 22.441406 8.601562 L 67.648438 8.601562 L 67.648438 30.507812 L 22.441406 30.507812 Z M 22.441406 8.601562 " clip-rule="nonzero"/></clipPath><clipPath id="70ae3fd6ad"><path d="M 29.191406 18.257812 L 52.90625 18.257812 L 52.90625 34.5625 L 29.191406 34.5625 Z M 29.191406 18.257812 " clip-rule="nonzero"/></clipPath><clipPath id="a03b327031"><path d="M 48.953125 23.003906 L 66.519531 23.003906 L 66.519531 34.121094 L 48.953125 34.121094 Z M 48.953125 23.003906 " clip-rule="nonzero"/></clipPath><clipPath id="c08f3adeb5"><path d="M 25 24 L 33 24 L 33 34.859375 L 25 34.859375 Z M 25 24 " clip-rule="nonzero"/></clipPath><clipPath id="e6944d255e"><path d="M 41 16.21875 L 47.5625 16.21875 L 47.5625 22.890625 L 41 22.890625 Z M 41 16.21875 " clip-rule="nonzero"/></clipPath></defs><g clip-path="url(#4c739c1935)"><g clip-path="url(#59cd82e94a)"><path fill="#ffde59" d="M 22.441406 8.277344 L 67.558594 8.277344 L 67.558594 53.394531 L 22.441406 53.394531 Z M 22.441406 8.277344 " fill-opacity="1" fill-rule="nonzero"/></g></g><g clip-path="url(#a1a7894ce8)"><path fill="#ffde59" d="M 67.628906 30.832031 C 67.628906 18.554688 57.511719 8.601562 45.027344 8.601562 C 32.539062 8.601562 22.460938 18.554688 22.460938 30.832031 Z M 67.628906 30.832031 " fill-opacity="1" fill-rule="nonzero"/></g><g clip-path="url(#70ae3fd6ad)"><path fill="#623d2b" d="M 33.390625 18.285156 C 33.214844 18.296875 33.054688 18.316406 33.035156 18.332031 C 33.015625 18.34375 32.910156 18.367188 32.808594 18.378906 C 32.421875 18.433594 32.042969 18.59375 31.695312 18.851562 C 31.585938 18.929688 31.441406 19.035156 31.371094 19.078125 C 31.25 19.164062 31.203125 19.238281 31.167969 19.425781 C 31.15625 19.476562 31.066406 19.621094 30.96875 19.742188 C 30.804688 19.945312 30.765625 19.972656 30.445312 20.132812 C 30.257812 20.226562 30.082031 20.300781 30.054688 20.300781 C 30.03125 20.300781 29.992188 20.324219 29.972656 20.347656 C 29.949219 20.371094 29.878906 20.40625 29.808594 20.425781 C 29.742188 20.441406 29.636719 20.488281 29.574219 20.53125 C 29.511719 20.570312 29.4375 20.601562 29.414062 20.601562 C 29.390625 20.601562 29.339844 20.625 29.300781 20.660156 C 29.214844 20.730469 29.207031 20.886719 29.289062 21.097656 C 29.320312 21.179688 29.375 21.328125 29.40625 21.421875 C 29.445312 21.515625 29.492188 21.601562 29.515625 21.613281 C 29.75 21.710938 30.375 21.753906 30.769531 21.699219 C 30.941406 21.675781 31.09375 21.65625 31.117188 21.65625 C 31.171875 21.65625 31.15625 21.707031 31.089844 21.769531 C 31.050781 21.796875 31.007812 21.835938 30.984375 21.855469 C 30.960938 21.875 30.929688 21.894531 30.914062 21.894531 C 30.859375 21.894531 30.53125 22.171875 30.492188 22.25 C 30.46875 22.292969 30.398438 22.367188 30.332031 22.410156 C 30.253906 22.464844 30.214844 22.519531 30.214844 22.558594 C 30.214844 22.617188 30.226562 22.621094 30.320312 22.605469 C 30.414062 22.59375 30.425781 22.597656 30.425781 22.660156 C 30.425781 22.878906 30.734375 23.082031 31.0625 23.078125 C 31.242188 23.078125 31.285156 23.0625 31.636719 22.878906 C 32.183594 22.59375 32.566406 22.46875 32.621094 22.554688 C 32.652344 22.601562 32.835938 22.59375 32.878906 22.542969 C 32.929688 22.480469 32.945312 22.484375 33.042969 22.574219 C 33.125 22.648438 33.144531 22.652344 33.324219 22.632812 L 33.515625 22.613281 L 33.6875 22.765625 C 33.78125 22.847656 33.871094 22.917969 33.882812 22.917969 C 33.894531 22.917969 33.933594 22.972656 33.96875 23.042969 C 34.007812 23.113281 34.054688 23.183594 34.074219 23.203125 C 34.09375 23.21875 34.121094 23.28125 34.132812 23.335938 C 34.199219 23.691406 34.203125 23.769531 34.175781 23.84375 C 34.136719 23.949219 34.027344 24.457031 34.007812 24.640625 C 33.976562 24.890625 34.046875 25.132812 34.210938 25.355469 C 34.292969 25.46875 34.386719 25.617188 34.421875 25.683594 C 34.457031 25.75 34.542969 25.886719 34.613281 25.984375 C 34.792969 26.230469 34.964844 26.542969 34.964844 26.609375 C 34.964844 26.714844 34.84375 26.941406 34.730469 27.058594 C 34.5625 27.222656 34.332031 27.417969 34.277344 27.441406 C 34.25 27.449219 34.171875 27.5 34.105469 27.546875 C 34.039062 27.597656 33.863281 27.707031 33.710938 27.792969 C 33.5625 27.875 33.433594 27.953125 33.421875 27.964844 C 33.414062 27.972656 33.367188 28.003906 33.320312 28.027344 C 33.195312 28.089844 33.003906 28.316406 32.910156 28.507812 C 32.839844 28.65625 32.832031 28.703125 32.835938 29.035156 C 32.835938 29.335938 32.84375 29.410156 32.894531 29.484375 C 32.988281 29.632812 33.222656 29.921875 33.246094 29.921875 C 33.261719 29.921875 33.269531 29.9375 33.269531 29.960938 C 33.269531 29.984375 33.285156 30.011719 33.296875 30.015625 C 33.347656 30.039062 33.527344 30.371094 33.59375 30.558594 C 33.605469 30.585938 33.621094 30.609375 33.632812 30.609375 C 33.644531 30.609375 33.726562 30.675781 33.808594 30.753906 C 34.007812 30.9375 34.113281 31.015625 34.25 31.082031 C 34.308594 31.109375 34.359375 31.144531 34.359375 31.160156 C 34.359375 31.171875 34.394531 31.183594 34.433594 31.183594 C 34.476562 31.183594 34.5625 31.210938 34.625 31.25 C 34.722656 31.308594 34.792969 31.316406 35.117188 31.328125 C 35.398438 31.335938 35.511719 31.328125 35.550781 31.296875 C 35.613281 31.25 35.667969 30.957031 35.632812 30.882812 C 35.601562 30.828125 35.5 30.546875 35.460938 30.414062 C 35.4375 30.335938 35.417969 30.324219 35.320312 30.316406 C 35.261719 30.3125 35.210938 30.296875 35.210938 30.28125 C 35.210938 30.238281 34.964844 30.136719 34.90625 30.152344 C 34.867188 30.164062 34.84375 30.152344 34.84375 30.125 C 34.84375 30.0625 34.671875 29.863281 34.566406 29.8125 C 34.523438 29.789062 34.480469 29.746094 34.480469 29.714844 C 34.480469 29.632812 34.332031 29.4375 34.269531 29.4375 C 34.234375 29.4375 34.203125 29.410156 34.191406 29.367188 C 34.160156 29.25 34.1875 29.191406 34.28125 29.164062 C 34.332031 29.152344 34.40625 29.105469 34.453125 29.0625 C 34.558594 28.960938 34.75 28.867188 34.847656 28.867188 C 34.894531 28.867188 34.9375 28.855469 34.941406 28.84375 C 34.949219 28.832031 35.0625 28.789062 35.195312 28.75 C 35.464844 28.675781 35.710938 28.589844 36.15625 28.414062 C 36.316406 28.347656 36.488281 28.296875 36.527344 28.296875 C 36.570312 28.296875 36.601562 28.289062 36.601562 28.273438 C 36.601562 28.261719 36.683594 28.210938 36.785156 28.164062 C 36.886719 28.117188 36.976562 28.058594 36.984375 28.039062 C 37.007812 27.984375 37.085938 27.984375 37.085938 28.039062 C 37.085938 28.101562 37.027344 28.265625 36.917969 28.492188 C 36.863281 28.605469 36.8125 28.734375 36.796875 28.777344 C 36.785156 28.816406 36.757812 28.867188 36.734375 28.890625 C 36.710938 28.914062 36.691406 28.957031 36.691406 28.984375 C 36.691406 29.011719 36.679688 29.046875 36.664062 29.0625 C 36.652344 29.082031 36.589844 29.210938 36.527344 29.351562 C 36.433594 29.574219 36.421875 29.644531 36.421875 29.839844 C 36.421875 30.019531 36.433594 30.089844 36.488281 30.179688 C 36.523438 30.246094 36.570312 30.304688 36.585938 30.316406 C 36.605469 30.328125 36.660156 30.398438 36.707031 30.472656 C 36.753906 30.546875 36.820312 30.609375 36.855469 30.621094 C 36.890625 30.628906 37 30.667969 37.101562 30.710938 C 37.234375 30.765625 37.367188 30.792969 37.59375 30.804688 C 37.765625 30.820312 37.902344 30.839844 37.902344 30.851562 C 37.902344 30.863281 37.988281 30.882812 38.09375 30.890625 C 38.199219 30.898438 38.414062 30.933594 38.582031 30.96875 C 38.746094 31.003906 38.984375 31.042969 39.113281 31.046875 C 39.238281 31.054688 39.382812 31.070312 39.425781 31.089844 C 39.476562 31.105469 39.542969 31.121094 39.585938 31.121094 C 39.625 31.121094 39.660156 31.132812 39.660156 31.152344 C 39.660156 31.171875 39.800781 31.183594 40.015625 31.183594 L 40.371094 31.179688 L 40.425781 31.066406 C 40.496094 30.914062 40.492188 30.679688 40.414062 30.476562 C 40.339844 30.28125 40.191406 30.101562 40.097656 30.101562 C 40.066406 30.101562 40.003906 30.082031 39.960938 30.058594 C 39.914062 30.039062 39.839844 30.019531 39.792969 30.015625 C 39.746094 30.015625 39.703125 30 39.695312 29.984375 C 39.679688 29.9375 39.546875 29.941406 39.527344 29.984375 C 39.511719 30.015625 39.503906 30.015625 39.492188 29.984375 C 39.46875 29.9375 39.394531 29.9375 39.382812 29.984375 C 39.371094 30.011719 39.355469 30.011719 39.316406 29.972656 C 39.25 29.90625 39.035156 29.851562 38.9375 29.875 C 38.804688 29.90625 38.691406 29.957031 38.691406 29.984375 C 38.691406 30 38.636719 30.011719 38.570312 30.011719 C 38.503906 30.011719 38.449219 30 38.449219 29.984375 C 38.449219 29.972656 38.375 29.9375 38.28125 29.90625 C 38.191406 29.882812 38.117188 29.84375 38.117188 29.828125 C 38.117188 29.8125 38.253906 29.566406 38.425781 29.28125 C 38.601562 28.996094 38.78125 28.691406 38.828125 28.601562 C 38.875 28.511719 38.953125 28.40625 39.003906 28.367188 C 39.085938 28.300781 39.101562 28.296875 39.613281 28.296875 C 39.902344 28.296875 40.144531 28.285156 40.152344 28.269531 C 40.171875 28.210938 41.410156 28 41.742188 27.996094 C 41.847656 27.996094 41.929688 27.984375 41.929688 27.964844 C 41.929688 27.949219 42.019531 27.9375 42.136719 27.9375 C 42.265625 27.9375 42.425781 27.910156 42.582031 27.859375 C 42.714844 27.820312 42.855469 27.785156 42.898438 27.785156 C 42.941406 27.785156 43.015625 27.765625 43.058594 27.742188 C 43.109375 27.714844 43.25 27.679688 43.378906 27.664062 C 43.503906 27.644531 43.6875 27.621094 43.777344 27.605469 C 43.867188 27.589844 43.996094 27.578125 44.058594 27.578125 L 44.171875 27.574219 L 44.171875 27.726562 C 44.171875 27.929688 44.46875 28.664062 44.613281 28.824219 C 44.648438 28.859375 44.714844 28.972656 44.769531 29.078125 C 44.824219 29.1875 44.957031 29.367188 45.066406 29.480469 C 45.171875 29.59375 45.261719 29.699219 45.261719 29.710938 C 45.261719 29.726562 45.28125 29.738281 45.300781 29.738281 C 45.335938 29.738281 45.5625 29.933594 45.5625 29.964844 C 45.5625 30.007812 45.757812 30.21875 45.796875 30.21875 C 45.820312 30.21875 45.835938 30.234375 45.835938 30.253906 C 45.835938 30.273438 45.894531 30.335938 45.964844 30.398438 C 46.035156 30.457031 46.117188 30.527344 46.140625 30.558594 C 46.167969 30.585938 46.222656 30.613281 46.253906 30.625 C 46.3125 30.640625 46.746094 31.054688 46.839844 31.179688 C 46.867188 31.214844 46.90625 31.300781 46.929688 31.371094 C 46.949219 31.441406 46.976562 31.503906 46.988281 31.511719 C 46.996094 31.523438 47.03125 31.605469 47.058594 31.703125 C 47.113281 31.875 47.105469 32.03125 47.042969 32.070312 C 47.03125 32.082031 47.015625 32.125 47.015625 32.175781 C 47.015625 32.226562 47.003906 32.265625 46.988281 32.265625 C 46.972656 32.265625 46.957031 32.28125 46.957031 32.296875 C 46.957031 32.332031 46.773438 32.605469 46.738281 32.617188 C 46.726562 32.625 46.714844 32.640625 46.714844 32.65625 C 46.714844 32.6875 46.128906 33.273438 46.03125 33.335938 C 45.972656 33.375 45.863281 33.390625 45.621094 33.402344 C 45.441406 33.410156 45.292969 33.425781 45.292969 33.4375 C 45.292969 33.453125 45.238281 33.46875 45.175781 33.480469 C 45.09375 33.492188 45.011719 33.546875 44.875 33.675781 C 44.710938 33.824219 44.6875 33.859375 44.6875 33.957031 C 44.6875 34.03125 44.671875 34.066406 44.644531 34.066406 C 44.59375 34.066406 44.445312 34.234375 44.445312 34.296875 C 44.445312 34.320312 44.46875 34.351562 44.5 34.359375 C 44.527344 34.371094 44.566406 34.40625 44.589844 34.429688 C 44.609375 34.460938 44.6875 34.496094 44.757812 34.503906 C 45.148438 34.5625 46.675781 34.484375 46.835938 34.394531 C 47.003906 34.300781 47.058594 34.230469 47.042969 34.105469 C 47.027344 34 47.039062 33.972656 47.125 33.875 C 47.179688 33.816406 47.238281 33.765625 47.253906 33.765625 C 47.273438 33.765625 47.292969 33.730469 47.300781 33.6875 C 47.3125 33.648438 47.476562 33.457031 47.667969 33.269531 C 47.859375 33.074219 48.015625 32.90625 48.015625 32.886719 C 48.015625 32.867188 48.074219 32.796875 48.148438 32.730469 C 48.214844 32.664062 48.304688 32.546875 48.339844 32.46875 C 48.378906 32.386719 48.421875 32.324219 48.441406 32.324219 C 48.457031 32.324219 48.472656 32.304688 48.472656 32.28125 C 48.472656 32.214844 48.652344 31.867188 48.71875 31.800781 C 48.773438 31.753906 48.777344 31.714844 48.765625 31.429688 L 48.75 31.105469 L 48.609375 30.976562 C 48.535156 30.90625 48.472656 30.835938 48.472656 30.820312 C 48.472656 30.804688 48.417969 30.734375 48.351562 30.667969 C 48.28125 30.597656 48.230469 30.53125 48.230469 30.515625 C 48.230469 30.5 48.183594 30.445312 48.128906 30.390625 C 48.019531 30.289062 47.894531 30.03125 47.894531 29.90625 C 47.894531 29.867188 47.867188 29.808594 47.839844 29.777344 C 47.804688 29.75 47.753906 29.644531 47.71875 29.542969 C 47.667969 29.386719 47.664062 29.320312 47.6875 29.035156 C 47.710938 28.710938 47.773438 28.472656 47.855469 28.394531 C 47.878906 28.371094 47.894531 28.332031 47.894531 28.3125 C 47.894531 28.273438 48 28.09375 48.078125 28.003906 C 48.09375 27.984375 48.109375 27.953125 48.109375 27.9375 C 48.109375 27.917969 48.128906 27.882812 48.152344 27.859375 C 48.175781 27.832031 48.199219 27.78125 48.199219 27.742188 C 48.199219 27.703125 48.242188 27.582031 48.289062 27.46875 C 48.339844 27.359375 48.378906 27.25 48.378906 27.226562 C 48.378906 27.203125 48.402344 27.175781 48.425781 27.167969 C 48.449219 27.15625 48.472656 27.128906 48.472656 27.105469 C 48.472656 27.082031 48.503906 27.011719 48.542969 26.949219 C 48.578125 26.890625 48.621094 26.808594 48.632812 26.773438 C 48.648438 26.734375 48.675781 26.6875 48.699219 26.660156 C 48.777344 26.582031 48.808594 25.996094 48.769531 25.425781 C 48.753906 25.144531 48.726562 24.90625 48.710938 24.898438 C 48.695312 24.886719 48.671875 24.8125 48.660156 24.730469 C 48.648438 24.597656 48.652344 24.566406 48.710938 24.523438 C 48.742188 24.492188 48.773438 24.449219 48.773438 24.429688 C 48.773438 24.410156 48.820312 24.359375 48.875 24.3125 C 48.933594 24.269531 49.046875 24.171875 49.128906 24.101562 C 49.207031 24.027344 49.292969 23.96875 49.3125 23.96875 C 49.332031 23.96875 49.347656 23.957031 49.347656 23.941406 C 49.347656 23.917969 49.65625 23.664062 49.820312 23.546875 C 49.859375 23.523438 49.945312 23.429688 50.019531 23.335938 C 50.164062 23.152344 50.25 23.070312 50.527344 22.828125 C 50.632812 22.738281 50.773438 22.605469 50.84375 22.539062 C 50.917969 22.46875 50.996094 22.402344 51.019531 22.386719 C 51.046875 22.371094 51.109375 22.308594 51.160156 22.246094 C 51.304688 22.066406 51.671875 21.753906 51.824219 21.679688 C 51.90625 21.640625 51.984375 21.59375 52.007812 21.574219 C 52.027344 21.550781 52.066406 21.535156 52.09375 21.535156 C 52.132812 21.535156 52.402344 21.398438 52.664062 21.246094 C 52.796875 21.171875 52.890625 21.046875 52.890625 20.949219 C 52.890625 20.917969 52.859375 20.902344 52.792969 20.902344 C 52.738281 20.902344 52.617188 20.875 52.523438 20.847656 C 52.351562 20.789062 52.160156 20.796875 52 20.871094 C 51.964844 20.886719 51.851562 20.914062 51.742188 20.9375 C 51.546875 20.972656 51.191406 21.113281 51.105469 21.1875 C 51.082031 21.210938 51.015625 21.238281 50.960938 21.257812 C 50.855469 21.292969 50.660156 21.429688 50.601562 21.503906 C 50.582031 21.527344 50.492188 21.628906 50.398438 21.722656 C 50.300781 21.824219 50.226562 21.917969 50.226562 21.941406 C 50.226562 21.96875 50.207031 21.984375 50.1875 21.984375 C 50.167969 21.984375 50.101562 22.03125 50.042969 22.09375 C 49.945312 22.191406 49.609375 22.4375 49.5625 22.4375 C 49.535156 22.4375 49.429688 22.554688 49.367188 22.652344 C 49.335938 22.699219 49.292969 22.738281 49.273438 22.738281 C 49.25 22.738281 49.183594 22.78125 49.128906 22.832031 C 48.992188 22.957031 48.941406 22.996094 48.78125 23.066406 C 48.59375 23.15625 48.046875 23.308594 47.910156 23.308594 C 47.691406 23.304688 47.28125 23.191406 46.910156 23.035156 C 46.136719 22.699219 45.316406 22.492188 44.472656 22.410156 C 43.996094 22.367188 42.667969 22.371094 42.007812 22.425781 C 41.28125 22.480469 41.050781 22.464844 40.792969 22.34375 C 40.554688 22.238281 40.3125 22.164062 40.191406 22.164062 C 40.09375 22.164062 39.644531 22.007812 39.570312 21.941406 C 39.429688 21.828125 39.269531 21.769531 39.042969 21.746094 C 38.65625 21.703125 38.535156 21.671875 38.402344 21.585938 C 38.324219 21.535156 38.210938 21.496094 38.078125 21.476562 C 37.9375 21.460938 37.808594 21.414062 37.683594 21.34375 C 37.453125 21.214844 37.109375 20.882812 36.988281 20.671875 C 36.90625 20.519531 36.8125 20.421875 36.324219 19.921875 L 36.109375 19.707031 L 36.246094 19.613281 C 36.34375 19.546875 36.421875 19.519531 36.503906 19.519531 C 36.691406 19.519531 36.722656 19.5 36.722656 19.375 C 36.722656 19.3125 36.710938 19.25 36.695312 19.230469 C 36.664062 19.199219 36.601562 18.882812 36.601562 18.753906 C 36.601562 18.699219 36.578125 18.636719 36.546875 18.609375 C 36.488281 18.554688 36.238281 18.5 36.070312 18.5 C 36.003906 18.5 35.953125 18.476562 35.929688 18.445312 C 35.855469 18.339844 35.761719 18.3125 35.507812 18.332031 C 35.375 18.339844 35.242188 18.359375 35.210938 18.378906 C 35.128906 18.421875 35.0625 18.417969 34.84375 18.347656 C 34.617188 18.277344 34.453125 18.273438 34.332031 18.332031 C 34.253906 18.375 34.226562 18.375 34.160156 18.335938 C 34.042969 18.277344 33.773438 18.261719 33.390625 18.285156 Z M 39.300781 23.597656 C 39.273438 23.644531 39.269531 23.644531 39.265625 23.605469 C 39.265625 23.554688 39.296875 23.507812 39.320312 23.53125 C 39.328125 23.539062 39.316406 23.570312 39.300781 23.597656 Z M 39.300781 23.597656 " fill-opacity="1" fill-rule="nonzero"/></g><g clip-path="url(#a03b327031)"><path fill="#623d2b" d="M 49.496094 26.085938 C 49.472656 26.039062 49.457031 25.910156 49.410156 25.867188 C 49.292969 25.824219 49.191406 25.742188 49.070312 25.703125 C 48.980469 25.679688 48.859375 25.648438 48.804688 25.566406 C 48.734375 25.453125 48.792969 25.320312 48.894531 25.28125 C 48.886719 25.277344 48.878906 25.269531 48.875 25.261719 C 48.804688 25.140625 48.824219 24.90625 49.007812 24.898438 C 49.015625 24.898438 49.023438 24.898438 49.03125 24.902344 C 49.039062 24.898438 49.046875 24.898438 49.054688 24.898438 C 49.105469 24.902344 49.125 24.820312 49.148438 24.785156 C 49.183594 24.738281 49.226562 24.726562 49.285156 24.722656 C 49.363281 24.710938 49.476562 24.726562 49.550781 24.78125 C 49.554688 24.777344 49.558594 24.777344 49.566406 24.777344 C 49.753906 24.765625 49.984375 24.875 50.054688 25.050781 C 50.058594 25.054688 50.058594 25.0625 50.058594 25.070312 C 50.148438 25.230469 50.296875 25.390625 50.40625 25.53125 C 50.546875 25.714844 50.691406 25.890625 50.808594 26.089844 C 50.929688 26.28125 51.011719 26.496094 51.113281 26.695312 C 51.148438 26.765625 51.191406 26.832031 51.238281 26.894531 C 51.300781 26.839844 51.375 26.652344 51.398438 26.609375 C 51.445312 26.515625 51.503906 26.390625 51.601562 26.339844 C 51.605469 26.339844 51.609375 26.335938 51.613281 26.335938 C 51.683594 26.179688 51.828125 26.066406 51.960938 25.957031 C 52.054688 25.878906 52.132812 25.777344 52.21875 25.6875 C 52.3125 25.585938 52.421875 25.511719 52.503906 25.402344 C 52.691406 25.164062 52.722656 24.921875 52.664062 24.636719 C 52.640625 24.515625 52.613281 24.390625 52.5625 24.28125 C 52.523438 24.195312 52.46875 24.121094 52.441406 24.03125 C 52.394531 23.882812 52.523438 23.710938 52.609375 23.601562 C 52.808594 23.347656 53.105469 23.324219 53.367188 23.457031 C 53.375 23.449219 53.386719 23.441406 53.402344 23.4375 C 53.664062 23.378906 53.878906 23.328125 54.148438 23.390625 C 54.171875 23.394531 54.195312 23.402344 54.214844 23.410156 C 54.21875 23.40625 54.222656 23.402344 54.230469 23.398438 C 54.332031 23.332031 54.476562 23.183594 54.503906 23.066406 C 54.515625 23.027344 54.578125 23.007812 54.605469 23.042969 C 54.734375 23.183594 54.648438 23.40625 54.640625 23.570312 C 54.640625 23.570312 54.640625 23.574219 54.640625 23.574219 C 54.722656 23.613281 54.800781 23.664062 54.878906 23.714844 C 54.980469 23.566406 55.191406 23.4375 55.324219 23.335938 C 55.492188 23.207031 55.667969 23.132812 55.75 23.363281 C 55.832031 23.578125 55.722656 23.867188 55.628906 24.0625 C 55.609375 24.101562 55.585938 24.136719 55.5625 24.171875 C 55.574219 24.179688 55.578125 24.195312 55.578125 24.210938 C 55.578125 24.511719 55.578125 24.816406 55.582031 25.117188 C 55.585938 25.390625 55.445312 25.605469 55.367188 25.859375 C 55.332031 25.972656 55.277344 26.078125 55.230469 26.1875 C 55.171875 26.332031 55.167969 26.484375 55.175781 26.636719 C 55.179688 26.695312 55.1875 26.753906 55.199219 26.808594 C 55.207031 26.816406 55.210938 26.824219 55.210938 26.832031 C 55.230469 26.945312 55.425781 27.019531 55.523438 27.066406 C 55.648438 27.132812 55.777344 27.1875 55.898438 27.265625 C 56.222656 27.480469 56.570312 27.652344 56.90625 27.851562 C 57.53125 28.222656 58.179688 28.664062 58.621094 29.234375 C 59.074219 29.816406 59.308594 30.503906 59.566406 31.175781 C 59.710938 31.5625 59.867188 31.90625 60.164062 32.214844 C 60.285156 32.339844 60.433594 32.4375 60.59375 32.515625 C 60.722656 32.578125 60.898438 32.644531 61.0625 32.671875 C 61.070312 32.664062 61.085938 32.65625 61.105469 32.65625 C 61.878906 32.710938 62.636719 32.667969 63.359375 32.375 C 63.679688 32.242188 64 32.128906 64.308594 31.96875 C 64.445312 31.898438 64.574219 31.835938 64.714844 31.789062 C 64.898438 31.726562 65.042969 31.597656 65.214844 31.519531 C 65.554688 31.363281 66.414062 31.113281 66.492188 31.683594 C 66.519531 31.882812 66.347656 32.085938 66.210938 32.214844 C 66.003906 32.40625 65.699219 32.46875 65.433594 32.546875 C 65.414062 32.550781 65.398438 32.546875 65.382812 32.539062 C 65.15625 32.574219 64.929688 32.753906 64.730469 32.855469 C 64.46875 32.992188 64.207031 33.125 63.9375 33.246094 C 63.425781 33.472656 62.855469 33.566406 62.300781 33.632812 C 61.734375 33.699219 61.121094 33.742188 60.554688 33.664062 C 60.304688 33.628906 60.074219 33.558594 59.839844 33.480469 C 59.703125 33.433594 59.558594 33.378906 59.457031 33.285156 C 59.324219 33.367188 59.128906 33.375 58.988281 33.4375 C 59.027344 33.578125 59.035156 33.714844 58.953125 33.859375 C 58.839844 34.046875 58.582031 34.078125 58.382812 34.078125 C 58.058594 34.085938 57.730469 34.035156 57.40625 34.027344 C 57.273438 34.023438 57.144531 34.039062 57.019531 34.046875 C 57 34.0625 56.976562 34.066406 56.953125 34.046875 C 56.953125 34.046875 56.953125 34.046875 56.949219 34.046875 C 56.871094 34.050781 56.789062 34.042969 56.707031 34.023438 C 56.6875 34.027344 56.664062 34.023438 56.648438 34.003906 C 56.621094 33.996094 56.589844 33.980469 56.5625 33.96875 C 56.53125 33.949219 56.503906 33.929688 56.476562 33.910156 C 56.464844 33.921875 56.445312 33.925781 56.425781 33.917969 C 56.191406 33.832031 55.925781 33.976562 55.683594 33.976562 C 55.453125 33.976562 55.335938 33.78125 55.34375 33.578125 C 55.347656 33.394531 55.492188 33.316406 55.683594 33.285156 C 55.671875 33.28125 55.660156 33.277344 55.648438 33.273438 C 55.519531 33.230469 55.390625 33.210938 55.269531 33.152344 C 55.121094 33.082031 55.015625 32.949219 54.910156 32.832031 C 54.734375 32.625 54.554688 32.371094 54.558594 32.097656 C 54.558594 31.960938 54.605469 31.820312 54.722656 31.765625 C 54.5 31.664062 54.300781 31.550781 54.101562 31.398438 C 53.921875 31.261719 53.722656 31.128906 53.589844 30.949219 C 53.507812 31.152344 53.4375 31.371094 53.308594 31.550781 C 53.222656 31.671875 53.140625 31.792969 53.054688 31.914062 C 52.855469 32.199219 52.652344 32.484375 52.46875 32.78125 C 52.335938 32.992188 52.402344 33.394531 52.144531 33.523438 C 52.214844 33.648438 52.242188 33.800781 52.1875 33.9375 C 52.121094 34.097656 51.921875 34.09375 51.804688 34 C 51.804688 34.003906 51.800781 34.007812 51.800781 34.011719 C 51.753906 34.078125 51.664062 34.105469 51.585938 34.109375 C 51.46875 34.113281 51.371094 34.046875 51.316406 33.953125 C 51.296875 33.972656 51.273438 33.988281 51.253906 34.003906 C 51.117188 34.089844 51.003906 33.972656 50.953125 33.859375 C 50.859375 33.636719 51.003906 33.464844 51.199219 33.371094 C 51.269531 33.242188 51.285156 33.097656 51.332031 32.957031 C 51.394531 32.777344 51.453125 32.597656 51.527344 32.421875 C 51.621094 32.195312 51.6875 31.96875 51.742188 31.730469 C 51.789062 31.519531 51.835938 31.308594 51.882812 31.097656 C 51.914062 30.972656 51.925781 30.816406 51.996094 30.707031 C 52 30.699219 52.003906 30.695312 52.007812 30.691406 C 52.058594 30.492188 52.074219 30.28125 52.035156 30.078125 C 51.992188 29.855469 51.855469 29.65625 51.78125 29.441406 C 51.664062 29.476562 51.496094 29.460938 51.414062 29.441406 C 50.933594 29.335938 50.753906 28.914062 50.570312 28.527344 C 50.464844 28.3125 50.3125 28.125 50.207031 27.914062 C 50.097656 27.699219 50.066406 27.425781 50.023438 27.191406 C 49.996094 27.042969 49.964844 26.910156 49.886719 26.773438 C 49.824219 26.660156 49.738281 26.558594 49.675781 26.441406 C 49.613281 26.324219 49.558594 26.203125 49.496094 26.085938 " fill-opacity="1" fill-rule="nonzero"/></g><g clip-path="url(#c08f3adeb5)"><path fill="#623d2b" d="M 32.078125 33.050781 C 32.078125 33.050781 32.3125 31.257812 30.980469 29.550781 C 29.648438 27.84375 28.484375 28.6875 28.484375 28.6875 C 28.484375 28.6875 28.019531 27.992188 28.160156 27.613281 C 28.300781 27.234375 28.871094 26.671875 28.949219 26.011719 C 29.027344 25.351562 29.382812 24.476562 29.042969 24.457031 C 28.703125 24.441406 28.066406 26.539062 28.066406 26.539062 C 28.066406 26.539062 29.261719 23.003906 27.835938 24.953125 C 27.289062 25.703125 27.109375 26.835938 27.109375 26.835938 C 27.109375 26.835938 26.597656 26.96875 26.535156 27.117188 C 26.472656 27.265625 25.808594 27.480469 25.417969 28.09375 C 25.03125 28.703125 24.96875 28.902344 25.09375 29.152344 C 25.21875 29.398438 25.699219 29.976562 26.054688 29.84375 L 26.226562 30.09375 C 26.226562 30.09375 25.820312 31.679688 27.230469 32.902344 C 27.230469 32.902344 27.433594 33.5625 27.339844 33.824219 C 27.246094 34.089844 26.921875 34.273438 26.921875 34.4375 C 26.921875 34.601562 27.277344 34.765625 27.632812 34.683594 C 27.992188 34.601562 27.820312 34.707031 27.820312 34.707031 C 27.820312 34.707031 28.917969 34.71875 29.058594 34.636719 C 29.199219 34.550781 29.199219 34.304688 29.199219 34.304688 C 29.199219 34.304688 29.429688 34.617188 29.507812 34.585938 C 29.585938 34.550781 30.808594 34.863281 30.933594 34.707031 C 31.054688 34.550781 31.351562 34.636719 31.351562 34.636719 C 31.351562 34.636719 31.738281 34.105469 31.863281 33.84375 C 31.984375 33.578125 32.050781 34.222656 32.558594 33.890625 C 33.066406 33.5625 33.117188 32.355469 32.078125 33.050781 " fill-opacity="1" fill-rule="nonzero"/></g><g clip-path="url(#e6944d255e)"><path fill="#623d2b" d="M 43.480469 22.320312 L 42.941406 22.371094 L 42.792969 22.160156 L 43.628906 21.171875 C 43.707031 21.207031 43.78125 21.242188 43.851562 21.273438 Z M 42.234375 17.078125 C 42.234375 17.238281 41.988281 17.238281 41.988281 17.078125 C 41.988281 16.917969 42.234375 16.917969 42.234375 17.078125 Z M 47.5625 22.035156 L 47.234375 21.894531 C 47.222656 21.886719 46 21.34375 45.25 20.023438 C 44.570312 18.824219 43.453125 18.929688 43.117188 17.910156 C 42.929688 17.347656 43.046875 17.261719 43.605469 16.839844 C 43.429688 16.742188 43.234375 16.660156 43.023438 16.71875 C 42.609375 16.234375 42 16.363281 41.621094 16.765625 C 41.085938 17.328125 40.886719 18.886719 41.585938 19.90625 C 42.046875 20.578125 42.621094 20.730469 43.507812 21.121094 L 42.671875 22.105469 L 41.882812 22.546875 C 41.824219 22.578125 41.847656 22.664062 41.914062 22.664062 C 41.941406 22.664062 42.667969 22.253906 42.691406 22.238281 C 43.058594 22.769531 43.070312 22.820312 43.140625 22.773438 C 43.207031 22.726562 43.144531 22.667969 43.023438 22.488281 L 43.503906 22.441406 C 43.96875 22.828125 43.996094 22.878906 44.050781 22.816406 C 44.109375 22.75 44.050781 22.730469 43.601562 22.359375 L 43.96875 21.324219 C 44.460938 21.546875 44.828125 21.714844 45.078125 21.859375 C 45.074219 21.773438 45.078125 21.5625 45.011719 21.234375 C 45.339844 21.480469 46.125 21.949219 47.207031 22.015625 L 47.5625 22.035156 " fill-opacity="1" fill-rule="nonzero"/></g><g fill="#4bad20" fill-opacity="1"><g transform="translate(30.553577, 43.247741)"><g><path d="M 1.21875 -1.25 C 1.070312 -1.289062 0.9375 -1.335938 0.8125 -1.390625 C 0.6875 -1.453125 0.578125 -1.519531 0.484375 -1.59375 C 0.398438 -1.664062 0.332031 -1.753906 0.28125 -1.859375 C 0.226562 -1.960938 0.203125 -2.09375 0.203125 -2.25 C 0.203125 -2.539062 0.3125 -2.773438 0.53125 -2.953125 C 0.757812 -3.128906 1.078125 -3.21875 1.484375 -3.21875 C 1.640625 -3.21875 1.78125 -3.207031 1.90625 -3.1875 C 2.03125 -3.164062 2.132812 -3.128906 2.21875 -3.078125 C 2.3125 -3.035156 2.382812 -2.984375 2.4375 -2.921875 C 2.488281 -2.859375 2.515625 -2.78125 2.515625 -2.6875 C 2.515625 -2.59375 2.492188 -2.515625 2.453125 -2.453125 C 2.410156 -2.390625 2.363281 -2.335938 2.3125 -2.296875 C 2.238281 -2.335938 2.132812 -2.375 2 -2.40625 C 1.875 -2.445312 1.738281 -2.46875 1.59375 -2.46875 C 1.4375 -2.46875 1.320312 -2.445312 1.25 -2.40625 C 1.175781 -2.363281 1.140625 -2.3125 1.140625 -2.25 C 1.140625 -2.195312 1.160156 -2.15625 1.203125 -2.125 C 1.253906 -2.09375 1.320312 -2.0625 1.40625 -2.03125 L 1.6875 -1.9375 C 2.007812 -1.84375 2.253906 -1.710938 2.421875 -1.546875 C 2.597656 -1.390625 2.6875 -1.171875 2.6875 -0.890625 C 2.6875 -0.597656 2.570312 -0.363281 2.34375 -0.1875 C 2.113281 -0.0078125 1.773438 0.078125 1.328125 0.078125 C 1.171875 0.078125 1.023438 0.0625 0.890625 0.03125 C 0.753906 0.0078125 0.632812 -0.0195312 0.53125 -0.0625 C 0.425781 -0.113281 0.34375 -0.175781 0.28125 -0.25 C 0.226562 -0.320312 0.203125 -0.410156 0.203125 -0.515625 C 0.203125 -0.609375 0.226562 -0.691406 0.28125 -0.765625 C 0.34375 -0.835938 0.410156 -0.890625 0.484375 -0.921875 C 0.578125 -0.847656 0.691406 -0.785156 0.828125 -0.734375 C 0.972656 -0.679688 1.128906 -0.65625 1.296875 -0.65625 C 1.460938 -0.65625 1.578125 -0.675781 1.640625 -0.71875 C 1.710938 -0.769531 1.75 -0.832031 1.75 -0.90625 C 1.75 -0.976562 1.722656 -1.03125 1.671875 -1.0625 C 1.617188 -1.101562 1.539062 -1.140625 1.4375 -1.171875 Z M 1.21875 -1.25 "/></g></g></g><g fill="#4bad20" fill-opacity="1"><g transform="translate(33.393184, 43.247741)"><g><path d="M 1 -3.03125 C 1.0625 -3.0625 1.148438 -3.09375 1.265625 -3.125 C 1.378906 -3.15625 1.5 -3.171875 1.625 -3.171875 C 1.789062 -3.171875 1.941406 -3.144531 2.078125 -3.09375 C 2.210938 -3.050781 2.296875 -2.972656 2.328125 -2.859375 C 2.390625 -2.679688 2.457031 -2.472656 2.53125 -2.234375 C 2.601562 -2.003906 2.675781 -1.757812 2.75 -1.5 C 2.820312 -1.25 2.890625 -1 2.953125 -0.75 C 3.023438 -0.507812 3.085938 -0.296875 3.140625 -0.109375 C 3.097656 -0.0546875 3.035156 -0.0195312 2.953125 0 C 2.878906 0.03125 2.785156 0.046875 2.671875 0.046875 C 2.585938 0.046875 2.515625 0.0390625 2.453125 0.03125 C 2.398438 0.0195312 2.351562 0 2.3125 -0.03125 C 2.28125 -0.0625 2.253906 -0.0976562 2.234375 -0.140625 C 2.210938 -0.179688 2.191406 -0.234375 2.171875 -0.296875 L 2.078125 -0.65625 L 1.140625 -0.65625 C 1.117188 -0.550781 1.09375 -0.441406 1.0625 -0.328125 C 1.03125 -0.222656 1.003906 -0.117188 0.984375 -0.015625 C 0.929688 0.00390625 0.878906 0.0195312 0.828125 0.03125 C 0.773438 0.0390625 0.710938 0.046875 0.640625 0.046875 C 0.460938 0.046875 0.332031 0.0195312 0.25 -0.03125 C 0.164062 -0.09375 0.125 -0.175781 0.125 -0.28125 C 0.125 -0.332031 0.128906 -0.378906 0.140625 -0.421875 C 0.148438 -0.472656 0.164062 -0.535156 0.1875 -0.609375 C 0.207031 -0.703125 0.238281 -0.816406 0.28125 -0.953125 C 0.320312 -1.085938 0.367188 -1.234375 0.421875 -1.390625 C 0.472656 -1.554688 0.53125 -1.722656 0.59375 -1.890625 C 0.65625 -2.054688 0.707031 -2.210938 0.75 -2.359375 C 0.800781 -2.515625 0.847656 -2.648438 0.890625 -2.765625 C 0.941406 -2.878906 0.976562 -2.96875 1 -3.03125 Z M 1.625 -2.359375 C 1.570312 -2.222656 1.515625 -2.066406 1.453125 -1.890625 C 1.390625 -1.710938 1.335938 -1.53125 1.296875 -1.34375 L 1.9375 -1.34375 C 1.882812 -1.53125 1.832031 -1.710938 1.78125 -1.890625 C 1.738281 -2.066406 1.695312 -2.222656 1.65625 -2.359375 Z M 1.625 -2.359375 "/></g></g></g><g fill="#4bad20" fill-opacity="1"><g transform="translate(36.624462, 43.247741)"><g><path d="M 2.203125 -0.109375 C 2.160156 -0.0664062 2.085938 -0.03125 1.984375 0 C 1.878906 0.03125 1.769531 0.046875 1.65625 0.046875 C 1.507812 0.046875 1.382812 0.0234375 1.28125 -0.015625 C 1.175781 -0.0546875 1.101562 -0.113281 1.0625 -0.1875 C 1.03125 -0.269531 0.984375 -0.375 0.921875 -0.5 C 0.867188 -0.625 0.8125 -0.765625 0.75 -0.921875 C 0.695312 -1.078125 0.632812 -1.238281 0.5625 -1.40625 C 0.5 -1.582031 0.4375 -1.757812 0.375 -1.9375 C 0.320312 -2.113281 0.269531 -2.285156 0.21875 -2.453125 C 0.164062 -2.628906 0.125 -2.796875 0.09375 -2.953125 C 0.132812 -2.992188 0.203125 -3.035156 0.296875 -3.078125 C 0.390625 -3.117188 0.488281 -3.140625 0.59375 -3.140625 C 0.71875 -3.140625 0.816406 -3.113281 0.890625 -3.0625 C 0.972656 -3.007812 1.035156 -2.910156 1.078125 -2.765625 C 1.171875 -2.429688 1.265625 -2.109375 1.359375 -1.796875 C 1.453125 -1.484375 1.550781 -1.160156 1.65625 -0.828125 L 1.6875 -0.828125 C 1.78125 -1.148438 1.875 -1.503906 1.96875 -1.890625 C 2.070312 -2.273438 2.164062 -2.65625 2.25 -3.03125 C 2.3125 -3.0625 2.378906 -3.085938 2.453125 -3.109375 C 2.523438 -3.128906 2.601562 -3.140625 2.6875 -3.140625 C 2.8125 -3.140625 2.921875 -3.109375 3.015625 -3.046875 C 3.109375 -2.992188 3.15625 -2.90625 3.15625 -2.78125 C 3.15625 -2.695312 3.132812 -2.582031 3.09375 -2.4375 C 3.0625 -2.300781 3.015625 -2.140625 2.953125 -1.953125 C 2.898438 -1.773438 2.835938 -1.585938 2.765625 -1.390625 C 2.691406 -1.191406 2.617188 -1.003906 2.546875 -0.828125 C 2.484375 -0.660156 2.421875 -0.507812 2.359375 -0.375 C 2.296875 -0.25 2.242188 -0.160156 2.203125 -0.109375 Z M 2.203125 -0.109375 "/></g></g></g><g fill="#4bad20" fill-opacity="1"><g transform="translate(39.891814, 43.247741)"><g><path d="M 1.234375 -0.015625 C 1.203125 -0.00390625 1.144531 0.00390625 1.0625 0.015625 C 0.976562 0.0234375 0.894531 0.03125 0.8125 0.03125 C 0.738281 0.03125 0.671875 0.0195312 0.609375 0 C 0.546875 -0.0078125 0.492188 -0.03125 0.453125 -0.0625 C 0.410156 -0.09375 0.378906 -0.132812 0.359375 -0.1875 C 0.335938 -0.238281 0.328125 -0.3125 0.328125 -0.40625 L 0.328125 -3.125 C 0.367188 -3.132812 0.429688 -3.144531 0.515625 -3.15625 C 0.597656 -3.164062 0.675781 -3.171875 0.75 -3.171875 C 0.832031 -3.171875 0.898438 -3.164062 0.953125 -3.15625 C 1.015625 -3.144531 1.066406 -3.125 1.109375 -3.09375 C 1.148438 -3.0625 1.179688 -3.015625 1.203125 -2.953125 C 1.222656 -2.898438 1.234375 -2.832031 1.234375 -2.75 Z M 1.234375 -0.015625 "/></g></g></g><g fill="#4bad20" fill-opacity="1"><g transform="translate(41.463648, 43.247741)"><g><path d="M 3.171875 -0.109375 C 3.117188 -0.0546875 3.046875 -0.0195312 2.953125 0 C 2.867188 0.03125 2.757812 0.046875 2.625 0.046875 C 2.5 0.046875 2.378906 0.0234375 2.265625 -0.015625 C 2.148438 -0.0546875 2.054688 -0.144531 1.984375 -0.28125 L 1.484375 -1.328125 C 1.429688 -1.429688 1.382812 -1.53125 1.34375 -1.625 C 1.300781 -1.726562 1.253906 -1.835938 1.203125 -1.953125 L 1.171875 -1.953125 C 1.191406 -1.765625 1.203125 -1.570312 1.203125 -1.375 C 1.203125 -1.1875 1.203125 -1 1.203125 -0.8125 L 1.203125 -0.015625 C 1.160156 -0.00390625 1.097656 0.00390625 1.015625 0.015625 C 0.941406 0.0234375 0.867188 0.03125 0.796875 0.03125 C 0.722656 0.03125 0.65625 0.0234375 0.59375 0.015625 C 0.539062 0.00390625 0.492188 -0.015625 0.453125 -0.046875 C 0.410156 -0.078125 0.378906 -0.117188 0.359375 -0.171875 C 0.335938 -0.234375 0.328125 -0.304688 0.328125 -0.390625 L 0.328125 -2.96875 C 0.378906 -3.03125 0.453125 -3.078125 0.546875 -3.109375 C 0.648438 -3.148438 0.757812 -3.171875 0.875 -3.171875 C 1 -3.171875 1.117188 -3.148438 1.234375 -3.109375 C 1.347656 -3.066406 1.441406 -2.976562 1.515625 -2.84375 L 2.03125 -1.796875 C 2.082031 -1.691406 2.128906 -1.59375 2.171875 -1.5 C 2.210938 -1.40625 2.257812 -1.296875 2.3125 -1.171875 L 2.328125 -1.171875 C 2.316406 -1.359375 2.304688 -1.546875 2.296875 -1.734375 C 2.296875 -1.921875 2.296875 -2.109375 2.296875 -2.296875 L 2.296875 -3.125 C 2.335938 -3.132812 2.394531 -3.144531 2.46875 -3.15625 C 2.550781 -3.164062 2.628906 -3.171875 2.703125 -3.171875 C 2.847656 -3.171875 2.960938 -3.144531 3.046875 -3.09375 C 3.128906 -3.039062 3.171875 -2.929688 3.171875 -2.765625 Z M 3.171875 -0.109375 "/></g></g></g><g fill="#4bad20" fill-opacity="1"><g transform="translate(44.962909, 43.247741)"><g><path d="M 3.171875 -0.515625 C 3.171875 -0.398438 3.148438 -0.316406 3.109375 -0.265625 C 3.066406 -0.222656 3.003906 -0.175781 2.921875 -0.125 C 2.878906 -0.09375 2.820312 -0.0625 2.75 -0.03125 C 2.675781 -0.0078125 2.59375 0.00390625 2.5 0.015625 C 2.414062 0.0351562 2.328125 0.0507812 2.234375 0.0625 C 2.140625 0.0703125 2.046875 0.078125 1.953125 0.078125 C 1.710938 0.078125 1.484375 0.046875 1.265625 -0.015625 C 1.046875 -0.0859375 0.851562 -0.191406 0.6875 -0.328125 C 0.53125 -0.460938 0.40625 -0.628906 0.3125 -0.828125 C 0.226562 -1.035156 0.1875 -1.269531 0.1875 -1.53125 C 0.1875 -1.8125 0.234375 -2.054688 0.328125 -2.265625 C 0.429688 -2.484375 0.566406 -2.660156 0.734375 -2.796875 C 0.898438 -2.929688 1.085938 -3.035156 1.296875 -3.109375 C 1.515625 -3.179688 1.738281 -3.21875 1.96875 -3.21875 C 2.289062 -3.21875 2.546875 -3.160156 2.734375 -3.046875 C 2.929688 -2.941406 3.03125 -2.804688 3.03125 -2.640625 C 3.03125 -2.554688 3.003906 -2.476562 2.953125 -2.40625 C 2.910156 -2.34375 2.863281 -2.296875 2.8125 -2.265625 C 2.726562 -2.304688 2.617188 -2.351562 2.484375 -2.40625 C 2.359375 -2.457031 2.210938 -2.484375 2.046875 -2.484375 C 1.765625 -2.484375 1.535156 -2.398438 1.359375 -2.234375 C 1.191406 -2.066406 1.109375 -1.835938 1.109375 -1.546875 C 1.109375 -1.390625 1.128906 -1.253906 1.171875 -1.140625 C 1.222656 -1.023438 1.285156 -0.929688 1.359375 -0.859375 C 1.441406 -0.785156 1.535156 -0.726562 1.640625 -0.6875 C 1.742188 -0.65625 1.851562 -0.640625 1.96875 -0.640625 C 2.039062 -0.640625 2.109375 -0.644531 2.171875 -0.65625 C 2.234375 -0.675781 2.28125 -0.691406 2.3125 -0.703125 L 2.3125 -1.1875 L 1.75 -1.1875 C 1.726562 -1.226562 1.707031 -1.28125 1.6875 -1.34375 C 1.675781 -1.40625 1.671875 -1.46875 1.671875 -1.53125 C 1.671875 -1.65625 1.695312 -1.742188 1.75 -1.796875 C 1.800781 -1.859375 1.875 -1.890625 1.96875 -1.890625 L 2.84375 -1.890625 C 2.945312 -1.890625 3.023438 -1.859375 3.078125 -1.796875 C 3.140625 -1.742188 3.171875 -1.664062 3.171875 -1.5625 Z M 3.171875 -0.515625 "/></g></g></g><g fill="#4bad20" fill-opacity="1"><g transform="translate(48.384868, 43.247741)"><g/></g></g><g fill="#4bad20" fill-opacity="1"><g transform="translate(49.415579, 43.247741)"><g><path d="M 1.5 -1.671875 C 1.644531 -1.671875 1.753906 -1.703125 1.828125 -1.765625 C 1.910156 -1.835938 1.953125 -1.941406 1.953125 -2.078125 C 1.953125 -2.210938 1.910156 -2.3125 1.828125 -2.375 C 1.753906 -2.445312 1.640625 -2.484375 1.484375 -2.484375 C 1.421875 -2.484375 1.375 -2.484375 1.34375 -2.484375 C 1.3125 -2.484375 1.273438 -2.476562 1.234375 -2.46875 L 1.234375 -1.671875 Z M 1.234375 -0.015625 C 1.203125 -0.00390625 1.144531 0.00390625 1.0625 0.015625 C 0.976562 0.0234375 0.894531 0.03125 0.8125 0.03125 C 0.738281 0.03125 0.671875 0.0195312 0.609375 0 C 0.546875 -0.0078125 0.492188 -0.03125 0.453125 -0.0625 C 0.410156 -0.09375 0.378906 -0.132812 0.359375 -0.1875 C 0.335938 -0.238281 0.328125 -0.3125 0.328125 -0.40625 L 0.328125 -2.828125 C 0.328125 -2.898438 0.347656 -2.957031 0.390625 -3 C 0.429688 -3.039062 0.488281 -3.070312 0.5625 -3.09375 C 0.675781 -3.132812 0.804688 -3.164062 0.953125 -3.1875 C 1.109375 -3.207031 1.257812 -3.21875 1.40625 -3.21875 C 1.882812 -3.21875 2.25 -3.113281 2.5 -2.90625 C 2.75 -2.707031 2.875 -2.429688 2.875 -2.078125 C 2.875 -1.910156 2.847656 -1.757812 2.796875 -1.625 C 2.742188 -1.488281 2.660156 -1.367188 2.546875 -1.265625 C 2.441406 -1.171875 2.3125 -1.097656 2.15625 -1.046875 C 2 -0.992188 1.816406 -0.96875 1.609375 -0.96875 L 1.234375 -0.96875 Z M 1.234375 -0.015625 "/></g></g></g><g fill="#4bad20" fill-opacity="1"><g transform="translate(52.409794, 43.247741)"><g><path d="M 0.328125 -2.640625 C 0.328125 -2.785156 0.367188 -2.898438 0.453125 -2.984375 C 0.546875 -3.078125 0.664062 -3.125 0.8125 -3.125 L 2.515625 -3.125 C 2.535156 -3.082031 2.554688 -3.03125 2.578125 -2.96875 C 2.597656 -2.90625 2.609375 -2.84375 2.609375 -2.78125 C 2.609375 -2.644531 2.578125 -2.550781 2.515625 -2.5 C 2.460938 -2.445312 2.390625 -2.421875 2.296875 -2.421875 L 1.21875 -2.421875 L 1.21875 -1.9375 L 2.375 -1.9375 C 2.394531 -1.894531 2.414062 -1.84375 2.4375 -1.78125 C 2.457031 -1.726562 2.46875 -1.664062 2.46875 -1.59375 C 2.46875 -1.46875 2.4375 -1.375 2.375 -1.3125 C 2.320312 -1.257812 2.25 -1.234375 2.15625 -1.234375 L 1.21875 -1.234375 L 1.21875 -0.703125 L 2.53125 -0.703125 C 2.5625 -0.660156 2.582031 -0.609375 2.59375 -0.546875 C 2.613281 -0.484375 2.625 -0.414062 2.625 -0.34375 C 2.625 -0.21875 2.59375 -0.125 2.53125 -0.0625 C 2.476562 -0.0078125 2.410156 0.015625 2.328125 0.015625 L 0.8125 0.015625 C 0.664062 0.015625 0.546875 -0.0234375 0.453125 -0.109375 C 0.367188 -0.203125 0.328125 -0.320312 0.328125 -0.46875 Z M 0.328125 -2.640625 "/></g></g></g><g fill="#4bad20" fill-opacity="1"><g transform="translate(55.23394, 43.247741)"><g><path d="M 0.1875 -2.40625 C 0.164062 -2.4375 0.144531 -2.484375 0.125 -2.546875 C 0.101562 -2.617188 0.09375 -2.691406 0.09375 -2.765625 C 0.09375 -2.898438 0.117188 -2.992188 0.171875 -3.046875 C 0.234375 -3.109375 0.316406 -3.140625 0.421875 -3.140625 L 2.671875 -3.140625 C 2.691406 -3.097656 2.710938 -3.046875 2.734375 -2.984375 C 2.753906 -2.921875 2.765625 -2.851562 2.765625 -2.78125 C 2.765625 -2.644531 2.734375 -2.546875 2.671875 -2.484375 C 2.609375 -2.429688 2.53125 -2.40625 2.4375 -2.40625 L 1.859375 -2.40625 L 1.859375 -0.015625 C 1.828125 -0.00390625 1.769531 0.00390625 1.6875 0.015625 C 1.601562 0.0234375 1.523438 0.03125 1.453125 0.03125 C 1.367188 0.03125 1.296875 0.0195312 1.234375 0 C 1.179688 -0.0078125 1.132812 -0.03125 1.09375 -0.0625 C 1.050781 -0.09375 1.019531 -0.132812 1 -0.1875 C 0.976562 -0.238281 0.96875 -0.3125 0.96875 -0.40625 L 0.96875 -2.40625 Z M 0.1875 -2.40625 "/></g></g></g><g fill="#4bad20" fill-opacity="1"><g transform="translate(58.099315, 43.247741)"><g><path d="M 1.21875 -1.25 C 1.070312 -1.289062 0.9375 -1.335938 0.8125 -1.390625 C 0.6875 -1.453125 0.578125 -1.519531 0.484375 -1.59375 C 0.398438 -1.664062 0.332031 -1.753906 0.28125 -1.859375 C 0.226562 -1.960938 0.203125 -2.09375 0.203125 -2.25 C 0.203125 -2.539062 0.3125 -2.773438 0.53125 -2.953125 C 0.757812 -3.128906 1.078125 -3.21875 1.484375 -3.21875 C 1.640625 -3.21875 1.78125 -3.207031 1.90625 -3.1875 C 2.03125 -3.164062 2.132812 -3.128906 2.21875 -3.078125 C 2.3125 -3.035156 2.382812 -2.984375 2.4375 -2.921875 C 2.488281 -2.859375 2.515625 -2.78125 2.515625 -2.6875 C 2.515625 -2.59375 2.492188 -2.515625 2.453125 -2.453125 C 2.410156 -2.390625 2.363281 -2.335938 2.3125 -2.296875 C 2.238281 -2.335938 2.132812 -2.375 2 -2.40625 C 1.875 -2.445312 1.738281 -2.46875 1.59375 -2.46875 C 1.4375 -2.46875 1.320312 -2.445312 1.25 -2.40625 C 1.175781 -2.363281 1.140625 -2.3125 1.140625 -2.25 C 1.140625 -2.195312 1.160156 -2.15625 1.203125 -2.125 C 1.253906 -2.09375 1.320312 -2.0625 1.40625 -2.03125 L 1.6875 -1.9375 C 2.007812 -1.84375 2.253906 -1.710938 2.421875 -1.546875 C 2.597656 -1.390625 2.6875 -1.171875 2.6875 -0.890625 C 2.6875 -0.597656 2.570312 -0.363281 2.34375 -0.1875 C 2.113281 -0.0078125 1.773438 0.078125 1.328125 0.078125 C 1.171875 0.078125 1.023438 0.0625 0.890625 0.03125 C 0.753906 0.0078125 0.632812 -0.0195312 0.53125 -0.0625 C 0.425781 -0.113281 0.34375 -0.175781 0.28125 -0.25 C 0.226562 -0.320312 0.203125 -0.410156 0.203125 -0.515625 C 0.203125 -0.609375 0.226562 -0.691406 0.28125 -0.765625 C 0.34375 -0.835938 0.410156 -0.890625 0.484375 -0.921875 C 0.578125 -0.847656 0.691406 -0.785156 0.828125 -0.734375 C 0.972656 -0.679688 1.128906 -0.65625 1.296875 -0.65625 C 1.460938 -0.65625 1.578125 -0.675781 1.640625 -0.71875 C 1.710938 -0.769531 1.75 -0.832031 1.75 -0.90625 C 1.75 -0.976562 1.722656 -1.03125 1.671875 -1.0625 C 1.617188 -1.101562 1.539062 -1.140625 1.4375 -1.171875 Z M 1.21875 -1.25 "/></g></g></g></svg>