<svg xmlns="http://www.w3.org/2000/svg" xmlns:xlink="http://www.w3.org/1999/xlink" width="153" zoomAndPan="magnify" viewBox="0 0 114.75 62.249996" height="83" preserveAspectRatio="xMidYMid meet" version="1.0"><defs><g/><clipPath id="5d54940b11"><path d="M 0.558594 0 L 113.945312 0 L 113.945312 61.507812 L 0.558594 61.507812 Z M 0.558594 0 " clip-rule="nonzero"/></clipPath><clipPath id="440234980f"><path d="M 28.550781 2.101562 L 86.480469 2.101562 L 86.480469 30.914062 L 28.550781 30.914062 Z M 28.550781 2.101562 " clip-rule="nonzero"/></clipPath><clipPath id="d44131c2af"><path d="M 28.261719 30.71875 L 86.191406 30.71875 L 86.191406 59.53125 L 28.261719 59.53125 Z M 28.261719 30.71875 " clip-rule="nonzero"/></clipPath><clipPath id="96cebcc068"><path d="M 37.175781 14.855469 L 66.882812 14.855469 L 66.882812 35.652344 L 37.175781 35.652344 Z M 37.175781 14.855469 " clip-rule="nonzero"/></clipPath><clipPath id="8bdad08bcb"><path d="M 62.589844 20.917969 L 84.707031 20.917969 L 84.707031 35.773438 L 62.589844 35.773438 Z M 62.589844 20.917969 " clip-rule="nonzero"/></clipPath><clipPath id="197dcf4c28"><path d="M 31.777344 22 L 42.917969 22 L 42.917969 35.773438 L 31.777344 35.773438 Z M 31.777344 22 " clip-rule="nonzero"/></clipPath><clipPath id="8196109635"><path d="M 52.125 12.25 L 60.292969 12.25 L 60.292969 21.164062 L 52.125 21.164062 Z M 52.125 12.25 " clip-rule="nonzero"/></clipPath></defs><g clip-path="url(#5d54940b11)"><path fill="#ffffff" d="M 0.558594 0 L 114.191406 0 L 114.191406 61.644531 L 0.558594 61.644531 Z M 0.558594 0 " fill-opacity="1" fill-rule="nonzero"/><path fill="#ffffff" d="M 0.558594 0 L 114.191406 0 L 114.191406 61.644531 L 0.558594 61.644531 Z M 0.558594 0 " fill-opacity="1" fill-rule="nonzero"/></g><g clip-path="url(#440234980f)"><path fill="#ffde59" d="M 86.449219 30.914062 C 86.449219 14.914062 73.488281 1.949219 57.492188 1.949219 C 41.496094 1.949219 28.582031 14.914062 28.582031 30.914062 Z M 86.449219 30.914062 " fill-opacity="1" fill-rule="nonzero"/></g><g clip-path="url(#d44131c2af)"><path fill="#ffde59" d="M 28.289062 30.71875 C 28.289062 46.71875 41.253906 59.683594 57.25 59.683594 C 73.246094 59.683594 86.160156 46.71875 86.160156 30.71875 Z M 28.289062 30.71875 " fill-opacity="1" fill-rule="nonzero"/></g><g clip-path="url(#96cebcc068)"><path fill="#623d2b" d="M 42.4375 14.886719 C 42.21875 14.902344 42.015625 14.925781 41.992188 14.945312 C 41.964844 14.960938 41.835938 14.992188 41.707031 15.007812 C 41.21875 15.078125 40.746094 15.28125 40.3125 15.609375 C 40.175781 15.707031 39.996094 15.84375 39.90625 15.898438 C 39.753906 16.011719 39.695312 16.105469 39.648438 16.339844 C 39.636719 16.410156 39.523438 16.59375 39.398438 16.746094 C 39.195312 17.007812 39.144531 17.042969 38.746094 17.246094 C 38.511719 17.363281 38.292969 17.460938 38.257812 17.460938 C 38.226562 17.460938 38.179688 17.488281 38.152344 17.519531 C 38.125 17.550781 38.039062 17.59375 37.949219 17.617188 C 37.867188 17.640625 37.734375 17.699219 37.65625 17.753906 C 37.574219 17.800781 37.484375 17.84375 37.453125 17.84375 C 37.425781 17.84375 37.363281 17.875 37.3125 17.917969 C 37.203125 18.003906 37.195312 18.207031 37.296875 18.476562 C 37.335938 18.582031 37.40625 18.769531 37.445312 18.886719 C 37.492188 19.007812 37.554688 19.117188 37.582031 19.132812 C 37.875 19.257812 38.660156 19.3125 39.152344 19.242188 C 39.367188 19.210938 39.558594 19.1875 39.585938 19.1875 C 39.65625 19.1875 39.640625 19.253906 39.550781 19.332031 C 39.507812 19.367188 39.449219 19.417969 39.421875 19.441406 C 39.390625 19.46875 39.355469 19.492188 39.335938 19.492188 C 39.265625 19.492188 38.855469 19.84375 38.804688 19.945312 C 38.773438 20.003906 38.6875 20.09375 38.601562 20.152344 C 38.507812 20.222656 38.457031 20.289062 38.457031 20.339844 C 38.457031 20.414062 38.46875 20.421875 38.589844 20.402344 C 38.707031 20.382812 38.722656 20.390625 38.722656 20.464844 C 38.722656 20.746094 39.109375 21.007812 39.515625 21.003906 C 39.746094 21.003906 39.796875 20.984375 40.238281 20.75 C 40.925781 20.386719 41.402344 20.226562 41.472656 20.335938 C 41.507812 20.394531 41.738281 20.382812 41.792969 20.316406 C 41.859375 20.238281 41.878906 20.242188 42 20.359375 C 42.105469 20.453125 42.128906 20.457031 42.351562 20.4375 L 42.59375 20.410156 L 42.808594 20.605469 C 42.925781 20.707031 43.039062 20.796875 43.050781 20.796875 C 43.066406 20.796875 43.117188 20.867188 43.164062 20.957031 C 43.207031 21.050781 43.269531 21.136719 43.292969 21.160156 C 43.316406 21.179688 43.351562 21.261719 43.363281 21.332031 C 43.445312 21.785156 43.453125 21.886719 43.421875 21.980469 C 43.371094 22.109375 43.234375 22.757812 43.207031 22.992188 C 43.171875 23.316406 43.257812 23.621094 43.464844 23.910156 C 43.566406 24.050781 43.6875 24.238281 43.726562 24.328125 C 43.773438 24.410156 43.878906 24.582031 43.964844 24.707031 C 44.191406 25.023438 44.410156 25.417969 44.410156 25.503906 C 44.410156 25.636719 44.257812 25.929688 44.113281 26.078125 C 43.90625 26.289062 43.617188 26.535156 43.546875 26.566406 C 43.511719 26.578125 43.414062 26.640625 43.328125 26.703125 C 43.246094 26.769531 43.027344 26.90625 42.835938 27.015625 C 42.652344 27.121094 42.488281 27.21875 42.476562 27.234375 C 42.464844 27.246094 42.40625 27.28125 42.347656 27.3125 C 42.191406 27.394531 41.953125 27.679688 41.835938 27.925781 C 41.746094 28.117188 41.738281 28.175781 41.738281 28.597656 C 41.738281 28.984375 41.75 29.078125 41.816406 29.171875 C 41.929688 29.359375 42.226562 29.730469 42.257812 29.730469 C 42.273438 29.730469 42.285156 29.75 42.285156 29.78125 C 42.285156 29.8125 42.300781 29.84375 42.316406 29.851562 C 42.382812 29.878906 42.609375 30.304688 42.6875 30.542969 C 42.703125 30.578125 42.726562 30.609375 42.742188 30.609375 C 42.753906 30.609375 42.855469 30.691406 42.960938 30.789062 C 43.207031 31.027344 43.339844 31.128906 43.511719 31.207031 C 43.585938 31.246094 43.652344 31.289062 43.652344 31.308594 C 43.652344 31.324219 43.695312 31.339844 43.742188 31.339844 C 43.796875 31.339844 43.902344 31.378906 43.980469 31.425781 C 44.105469 31.5 44.191406 31.511719 44.601562 31.523438 C 44.949219 31.535156 45.09375 31.523438 45.140625 31.484375 C 45.21875 31.425781 45.289062 31.050781 45.246094 30.957031 C 45.207031 30.886719 45.078125 30.527344 45.027344 30.359375 C 45.003906 30.261719 44.976562 30.246094 44.855469 30.234375 C 44.777344 30.226562 44.714844 30.207031 44.714844 30.1875 C 44.714844 30.136719 44.410156 30.003906 44.335938 30.023438 C 44.285156 30.039062 44.257812 30.023438 44.257812 29.988281 C 44.257812 29.910156 44.039062 29.65625 43.910156 29.589844 C 43.851562 29.558594 43.804688 29.507812 43.804688 29.46875 C 43.804688 29.359375 43.617188 29.113281 43.539062 29.113281 C 43.492188 29.113281 43.453125 29.082031 43.4375 29.023438 C 43.402344 28.875 43.4375 28.796875 43.554688 28.765625 C 43.613281 28.746094 43.707031 28.691406 43.765625 28.636719 C 43.898438 28.503906 44.136719 28.386719 44.261719 28.386719 C 44.320312 28.386719 44.371094 28.371094 44.378906 28.355469 C 44.386719 28.339844 44.527344 28.285156 44.695312 28.238281 C 45.03125 28.140625 45.34375 28.03125 45.902344 27.808594 C 46.101562 27.722656 46.3125 27.660156 46.363281 27.660156 C 46.417969 27.660156 46.457031 27.648438 46.457031 27.628906 C 46.457031 27.613281 46.5625 27.550781 46.691406 27.488281 C 46.816406 27.429688 46.929688 27.355469 46.941406 27.328125 C 46.964844 27.257812 47.066406 27.257812 47.066406 27.328125 C 47.066406 27.410156 46.988281 27.621094 46.855469 27.90625 C 46.789062 28.054688 46.71875 28.21875 46.703125 28.273438 C 46.691406 28.320312 46.652344 28.386719 46.625 28.417969 C 46.59375 28.445312 46.574219 28.496094 46.574219 28.535156 C 46.574219 28.570312 46.558594 28.617188 46.539062 28.636719 C 46.523438 28.660156 46.441406 28.824219 46.367188 29.003906 C 46.25 29.289062 46.230469 29.375 46.230469 29.625 C 46.230469 29.855469 46.25 29.945312 46.3125 30.0625 C 46.359375 30.144531 46.417969 30.21875 46.441406 30.234375 C 46.460938 30.25 46.53125 30.339844 46.589844 30.433594 C 46.648438 30.527344 46.730469 30.609375 46.777344 30.621094 C 46.824219 30.632812 46.960938 30.683594 47.085938 30.738281 C 47.25 30.804688 47.417969 30.839844 47.703125 30.859375 C 47.914062 30.875 48.089844 30.902344 48.089844 30.917969 C 48.089844 30.933594 48.195312 30.957031 48.328125 30.96875 C 48.457031 30.972656 48.730469 31.019531 48.9375 31.066406 C 49.144531 31.113281 49.445312 31.160156 49.601562 31.167969 C 49.761719 31.175781 49.941406 31.195312 49.996094 31.21875 C 50.058594 31.242188 50.144531 31.261719 50.199219 31.261719 C 50.246094 31.261719 50.289062 31.277344 50.289062 31.300781 C 50.289062 31.324219 50.464844 31.339844 50.738281 31.339844 L 51.179688 31.335938 L 51.25 31.1875 C 51.335938 30.996094 51.332031 30.699219 51.234375 30.4375 C 51.144531 30.1875 50.953125 29.957031 50.839844 29.957031 C 50.796875 29.957031 50.71875 29.9375 50.664062 29.90625 C 50.609375 29.878906 50.515625 29.855469 50.457031 29.851562 C 50.398438 29.851562 50.34375 29.832031 50.335938 29.808594 C 50.316406 29.75 50.148438 29.753906 50.121094 29.8125 C 50.101562 29.851562 50.097656 29.851562 50.078125 29.8125 C 50.050781 29.75 49.960938 29.75 49.941406 29.8125 C 49.929688 29.847656 49.90625 29.84375 49.855469 29.796875 C 49.773438 29.710938 49.507812 29.640625 49.382812 29.671875 C 49.21875 29.710938 49.074219 29.773438 49.074219 29.808594 C 49.074219 29.828125 49.007812 29.84375 48.925781 29.84375 C 48.839844 29.84375 48.773438 29.828125 48.773438 29.8125 C 48.773438 29.792969 48.675781 29.75 48.5625 29.714844 C 48.449219 29.679688 48.355469 29.632812 48.355469 29.613281 C 48.355469 29.589844 48.53125 29.28125 48.746094 28.914062 C 48.960938 28.550781 49.1875 28.160156 49.246094 28.050781 C 49.308594 27.933594 49.40625 27.800781 49.464844 27.75 C 49.574219 27.664062 49.589844 27.660156 50.230469 27.660156 C 50.59375 27.660156 50.894531 27.644531 50.902344 27.625 C 50.929688 27.546875 52.480469 27.277344 52.898438 27.273438 C 53.027344 27.273438 53.132812 27.257812 53.132812 27.238281 C 53.132812 27.214844 53.242188 27.199219 53.390625 27.199219 C 53.554688 27.199219 53.753906 27.164062 53.949219 27.101562 C 54.117188 27.046875 54.292969 27.007812 54.347656 27.007812 C 54.402344 27.007812 54.492188 26.980469 54.546875 26.949219 C 54.609375 26.917969 54.789062 26.871094 54.945312 26.847656 C 55.105469 26.828125 55.332031 26.796875 55.449219 26.777344 C 55.5625 26.757812 55.722656 26.742188 55.800781 26.742188 L 55.941406 26.738281 L 55.941406 26.929688 C 55.941406 27.191406 56.3125 28.125 56.496094 28.328125 C 56.535156 28.375 56.625 28.519531 56.6875 28.65625 C 56.757812 28.792969 56.921875 29.023438 57.058594 29.167969 C 57.195312 29.316406 57.304688 29.449219 57.304688 29.464844 C 57.304688 29.484375 57.328125 29.5 57.355469 29.5 C 57.402344 29.5 57.683594 29.742188 57.683594 29.785156 C 57.683594 29.839844 57.929688 30.113281 57.976562 30.113281 C 58.003906 30.113281 58.027344 30.132812 58.027344 30.152344 C 58.027344 30.175781 58.097656 30.261719 58.1875 30.339844 C 58.273438 30.414062 58.375 30.503906 58.410156 30.542969 C 58.445312 30.574219 58.507812 30.613281 58.550781 30.625 C 58.621094 30.648438 59.164062 31.175781 59.28125 31.335938 C 59.316406 31.382812 59.367188 31.488281 59.394531 31.582031 C 59.421875 31.667969 59.457031 31.75 59.46875 31.761719 C 59.480469 31.773438 59.519531 31.878906 59.554688 32 C 59.625 32.21875 59.617188 32.421875 59.539062 32.46875 C 59.519531 32.484375 59.507812 32.542969 59.507812 32.609375 C 59.507812 32.667969 59.492188 32.71875 59.46875 32.71875 C 59.449219 32.71875 59.429688 32.738281 59.429688 32.761719 C 59.429688 32.808594 59.203125 33.15625 59.15625 33.171875 C 59.140625 33.179688 59.125 33.199219 59.125 33.21875 C 59.125 33.257812 58.390625 34.007812 58.269531 34.085938 C 58.199219 34.132812 58.0625 34.15625 57.757812 34.167969 C 57.53125 34.179688 57.34375 34.199219 57.34375 34.214844 C 57.34375 34.234375 57.28125 34.257812 57.199219 34.273438 C 57.097656 34.285156 56.992188 34.355469 56.820312 34.515625 C 56.617188 34.707031 56.585938 34.753906 56.585938 34.878906 C 56.585938 34.972656 56.566406 35.019531 56.53125 35.019531 C 56.46875 35.019531 56.28125 35.234375 56.28125 35.308594 C 56.28125 35.339844 56.3125 35.378906 56.351562 35.390625 C 56.382812 35.40625 56.4375 35.449219 56.464844 35.484375 C 56.492188 35.519531 56.585938 35.5625 56.675781 35.574219 C 57.164062 35.652344 59.078125 35.546875 59.277344 35.4375 C 59.492188 35.316406 59.554688 35.226562 59.535156 35.066406 C 59.515625 34.933594 59.53125 34.894531 59.640625 34.773438 C 59.710938 34.695312 59.78125 34.636719 59.800781 34.636719 C 59.824219 34.636719 59.851562 34.589844 59.863281 34.535156 C 59.878906 34.480469 60.082031 34.242188 60.320312 34 C 60.558594 33.753906 60.757812 33.535156 60.757812 33.511719 C 60.757812 33.488281 60.828125 33.398438 60.921875 33.3125 C 61.007812 33.230469 61.117188 33.078125 61.164062 32.980469 C 61.210938 32.875 61.265625 32.796875 61.289062 32.796875 C 61.308594 32.796875 61.328125 32.769531 61.328125 32.738281 C 61.328125 32.65625 61.554688 32.210938 61.636719 32.128906 C 61.707031 32.066406 61.710938 32.015625 61.695312 31.652344 L 61.675781 31.242188 L 61.5 31.078125 C 61.40625 30.984375 61.328125 30.898438 61.328125 30.875 C 61.328125 30.855469 61.257812 30.765625 61.175781 30.683594 C 61.089844 30.59375 61.023438 30.507812 61.023438 30.488281 C 61.023438 30.46875 60.964844 30.398438 60.898438 30.332031 C 60.761719 30.199219 60.605469 29.871094 60.605469 29.714844 C 60.605469 29.660156 60.570312 29.585938 60.535156 29.546875 C 60.492188 29.511719 60.425781 29.375 60.386719 29.25 C 60.320312 29.050781 60.316406 28.964844 60.34375 28.597656 C 60.375 28.1875 60.453125 27.882812 60.558594 27.78125 C 60.582031 27.753906 60.605469 27.703125 60.605469 27.675781 C 60.605469 27.628906 60.738281 27.398438 60.832031 27.285156 C 60.851562 27.257812 60.871094 27.222656 60.871094 27.199219 C 60.871094 27.175781 60.898438 27.128906 60.929688 27.097656 C 60.957031 27.0625 60.984375 27 60.984375 26.949219 C 60.984375 26.898438 61.039062 26.746094 61.097656 26.605469 C 61.164062 26.460938 61.210938 26.324219 61.210938 26.292969 C 61.210938 26.261719 61.238281 26.226562 61.269531 26.21875 C 61.300781 26.203125 61.328125 26.171875 61.328125 26.140625 C 61.328125 26.109375 61.367188 26.019531 61.417969 25.941406 C 61.464844 25.863281 61.515625 25.761719 61.53125 25.714844 C 61.546875 25.664062 61.585938 25.601562 61.609375 25.574219 C 61.710938 25.472656 61.75 24.726562 61.703125 23.996094 C 61.679688 23.636719 61.644531 23.332031 61.625 23.324219 C 61.605469 23.3125 61.582031 23.214844 61.566406 23.109375 C 61.546875 22.9375 61.554688 22.902344 61.625 22.84375 C 61.667969 22.804688 61.707031 22.75 61.707031 22.726562 C 61.707031 22.703125 61.761719 22.636719 61.835938 22.578125 C 61.90625 22.519531 62.046875 22.398438 62.148438 22.304688 C 62.25 22.214844 62.355469 22.136719 62.382812 22.136719 C 62.402344 22.136719 62.425781 22.121094 62.425781 22.101562 C 62.425781 22.074219 62.808594 21.746094 63.019531 21.601562 C 63.0625 21.570312 63.171875 21.449219 63.265625 21.332031 C 63.445312 21.097656 63.554688 20.992188 63.902344 20.679688 C 64.035156 20.566406 64.214844 20.402344 64.300781 20.3125 C 64.390625 20.226562 64.488281 20.140625 64.519531 20.121094 C 64.554688 20.101562 64.632812 20.023438 64.695312 19.941406 C 64.875 19.710938 65.335938 19.3125 65.527344 19.21875 C 65.628906 19.171875 65.730469 19.109375 65.757812 19.082031 C 65.785156 19.054688 65.832031 19.03125 65.863281 19.03125 C 65.914062 19.03125 66.25 18.859375 66.578125 18.664062 C 66.746094 18.570312 66.863281 18.410156 66.863281 18.285156 C 66.863281 18.246094 66.828125 18.226562 66.742188 18.226562 C 66.675781 18.226562 66.523438 18.191406 66.40625 18.15625 C 66.1875 18.082031 65.945312 18.09375 65.746094 18.183594 C 65.703125 18.203125 65.558594 18.242188 65.421875 18.269531 C 65.179688 18.316406 64.738281 18.496094 64.625 18.589844 C 64.597656 18.617188 64.511719 18.65625 64.449219 18.679688 C 64.316406 18.726562 64.070312 18.898438 63.996094 18.996094 C 63.96875 19.023438 63.855469 19.152344 63.738281 19.273438 C 63.621094 19.402344 63.527344 19.523438 63.527344 19.554688 C 63.527344 19.585938 63.503906 19.609375 63.476562 19.609375 C 63.449219 19.609375 63.367188 19.667969 63.296875 19.746094 C 63.171875 19.871094 62.753906 20.183594 62.695312 20.183594 C 62.660156 20.183594 62.527344 20.335938 62.449219 20.457031 C 62.410156 20.519531 62.359375 20.566406 62.332031 20.566406 C 62.300781 20.566406 62.222656 20.625 62.148438 20.6875 C 61.980469 20.851562 61.914062 20.894531 61.71875 20.988281 C 61.476562 21.101562 60.796875 21.292969 60.625 21.292969 C 60.347656 21.289062 59.835938 21.148438 59.375 20.949219 C 58.402344 20.519531 57.375 20.253906 56.320312 20.152344 C 55.722656 20.09375 54.054688 20.101562 53.230469 20.167969 C 52.320312 20.238281 52.035156 20.222656 51.707031 20.066406 C 51.410156 19.929688 51.109375 19.835938 50.957031 19.835938 C 50.832031 19.835938 50.269531 19.632812 50.175781 19.554688 C 50 19.410156 49.800781 19.332031 49.515625 19.300781 C 49.035156 19.246094 48.878906 19.207031 48.714844 19.097656 C 48.617188 19.03125 48.476562 18.984375 48.304688 18.960938 C 48.132812 18.9375 47.972656 18.878906 47.8125 18.789062 C 47.523438 18.625 47.09375 18.199219 46.945312 17.933594 C 46.835938 17.742188 46.722656 17.613281 46.109375 16.976562 L 45.84375 16.703125 L 46.015625 16.582031 C 46.136719 16.5 46.230469 16.464844 46.335938 16.464844 C 46.570312 16.464844 46.609375 16.4375 46.609375 16.277344 C 46.609375 16.199219 46.59375 16.117188 46.574219 16.097656 C 46.539062 16.054688 46.457031 15.652344 46.457031 15.488281 C 46.457031 15.417969 46.429688 15.335938 46.390625 15.300781 C 46.316406 15.234375 46.003906 15.160156 45.789062 15.160156 C 45.710938 15.160156 45.648438 15.132812 45.617188 15.089844 C 45.523438 14.957031 45.40625 14.921875 45.089844 14.945312 C 44.921875 14.957031 44.753906 14.984375 44.714844 15.007812 C 44.613281 15.0625 44.527344 15.058594 44.257812 14.96875 C 43.972656 14.875 43.765625 14.871094 43.613281 14.949219 C 43.515625 15.003906 43.484375 15.003906 43.398438 14.953125 C 43.253906 14.878906 42.914062 14.859375 42.4375 14.886719 Z M 49.839844 21.667969 C 49.808594 21.722656 49.800781 21.722656 49.796875 21.675781 C 49.796875 21.609375 49.835938 21.550781 49.863281 21.578125 C 49.871094 21.589844 49.859375 21.628906 49.839844 21.667969 Z M 49.839844 21.667969 " fill-opacity="1" fill-rule="nonzero"/></g><g clip-path="url(#8bdad08bcb)"><path fill="#623d2b" d="M 63.546875 25.035156 C 63.515625 24.976562 63.496094 24.800781 63.4375 24.742188 C 63.289062 24.683594 63.164062 24.578125 63.007812 24.527344 C 62.898438 24.492188 62.746094 24.449219 62.679688 24.339844 C 62.589844 24.191406 62.660156 24.011719 62.789062 23.960938 C 62.78125 23.953125 62.773438 23.945312 62.765625 23.933594 C 62.675781 23.769531 62.703125 23.460938 62.933594 23.449219 C 62.945312 23.449219 62.953125 23.449219 62.964844 23.453125 C 62.972656 23.449219 62.980469 23.449219 62.992188 23.449219 C 63.054688 23.453125 63.078125 23.34375 63.109375 23.296875 C 63.152344 23.234375 63.207031 23.21875 63.277344 23.210938 C 63.378906 23.199219 63.519531 23.222656 63.613281 23.289062 C 63.617188 23.289062 63.625 23.289062 63.632812 23.285156 C 63.867188 23.269531 64.15625 23.417969 64.242188 23.648438 C 64.246094 23.660156 64.25 23.667969 64.25 23.675781 C 64.359375 23.890625 64.546875 24.105469 64.683594 24.296875 C 64.863281 24.539062 65.039062 24.777344 65.191406 25.039062 C 65.339844 25.300781 65.445312 25.582031 65.570312 25.851562 C 65.617188 25.945312 65.667969 26.03125 65.726562 26.117188 C 65.804688 26.042969 65.898438 25.792969 65.925781 25.734375 C 65.988281 25.613281 66.058594 25.445312 66.183594 25.375 C 66.1875 25.375 66.195312 25.371094 66.199219 25.371094 C 66.285156 25.160156 66.464844 25.007812 66.632812 24.863281 C 66.75 24.757812 66.847656 24.625 66.953125 24.503906 C 67.070312 24.371094 67.207031 24.269531 67.316406 24.125 C 67.546875 23.800781 67.585938 23.480469 67.515625 23.097656 C 67.484375 22.941406 67.449219 22.769531 67.382812 22.621094 C 67.335938 22.507812 67.265625 22.414062 67.234375 22.292969 C 67.175781 22.089844 67.335938 21.863281 67.445312 21.714844 C 67.695312 21.375 68.066406 21.34375 68.394531 21.523438 C 68.402344 21.511719 68.417969 21.5 68.4375 21.496094 C 68.765625 21.417969 69.035156 21.351562 69.371094 21.433594 C 69.402344 21.441406 69.429688 21.449219 69.457031 21.457031 C 69.460938 21.453125 69.46875 21.449219 69.472656 21.445312 C 69.605469 21.355469 69.78125 21.160156 69.816406 21.003906 C 69.832031 20.945312 69.910156 20.921875 69.945312 20.96875 C 70.105469 21.160156 69.996094 21.453125 69.988281 21.675781 C 70.09375 21.734375 70.191406 21.796875 70.285156 21.867188 C 70.414062 21.667969 70.675781 21.496094 70.84375 21.359375 C 71.054688 21.1875 71.273438 21.089844 71.382812 21.398438 C 71.480469 21.683594 71.34375 22.070312 71.226562 22.328125 C 71.203125 22.382812 71.175781 22.429688 71.144531 22.476562 C 71.15625 22.492188 71.164062 22.507812 71.164062 22.53125 C 71.164062 22.933594 71.164062 23.339844 71.171875 23.742188 C 71.175781 24.105469 71 24.394531 70.898438 24.730469 C 70.855469 24.882812 70.785156 25.027344 70.726562 25.171875 C 70.652344 25.363281 70.648438 25.570312 70.660156 25.773438 C 70.664062 25.851562 70.675781 25.925781 70.691406 26 C 70.695312 26.007812 70.703125 26.019531 70.703125 26.035156 C 70.730469 26.183594 70.972656 26.28125 71.09375 26.347656 C 71.253906 26.433594 71.414062 26.507812 71.5625 26.613281 C 71.972656 26.898438 72.40625 27.128906 72.828125 27.394531 C 73.613281 27.890625 74.421875 28.480469 74.976562 29.242188 C 75.542969 30.019531 75.835938 30.941406 76.15625 31.839844 C 76.34375 32.355469 76.539062 32.816406 76.90625 33.226562 C 77.0625 33.394531 77.246094 33.523438 77.445312 33.628906 C 77.605469 33.714844 77.828125 33.800781 78.03125 33.839844 C 78.042969 33.824219 78.0625 33.816406 78.085938 33.820312 C 79.058594 33.890625 80.003906 33.832031 80.910156 33.4375 C 81.3125 33.261719 81.714844 33.109375 82.101562 32.898438 C 82.269531 32.804688 82.433594 32.722656 82.613281 32.65625 C 82.839844 32.570312 83.019531 32.402344 83.238281 32.296875 C 83.660156 32.089844 84.738281 31.753906 84.835938 32.519531 C 84.867188 32.78125 84.652344 33.054688 84.484375 33.222656 C 84.226562 33.480469 83.84375 33.566406 83.511719 33.667969 C 83.484375 33.675781 83.464844 33.671875 83.449219 33.660156 C 83.160156 33.703125 82.878906 33.945312 82.628906 34.085938 C 82.300781 34.265625 81.972656 34.441406 81.632812 34.601562 C 80.996094 34.90625 80.28125 35.035156 79.585938 35.121094 C 78.875 35.210938 78.109375 35.269531 77.398438 35.160156 C 77.085938 35.113281 76.796875 35.023438 76.503906 34.914062 C 76.328125 34.851562 76.152344 34.785156 76.019531 34.65625 C 75.859375 34.769531 75.613281 34.773438 75.433594 34.859375 C 75.484375 35.046875 75.492188 35.234375 75.390625 35.421875 C 75.25 35.675781 74.925781 35.714844 74.675781 35.71875 C 74.269531 35.722656 73.859375 35.660156 73.453125 35.648438 C 73.285156 35.640625 73.125 35.664062 72.96875 35.671875 C 72.945312 35.695312 72.914062 35.699219 72.882812 35.675781 C 72.78125 35.679688 72.679688 35.671875 72.578125 35.644531 C 72.554688 35.652344 72.523438 35.644531 72.503906 35.617188 C 72.46875 35.605469 72.429688 35.589844 72.394531 35.566406 C 72.355469 35.546875 72.320312 35.519531 72.292969 35.492188 C 72.273438 35.503906 72.253906 35.511719 72.222656 35.5 C 71.933594 35.390625 71.597656 35.582031 71.296875 35.582031 C 71.007812 35.582031 70.863281 35.320312 70.867188 35.050781 C 70.875 34.804688 71.058594 34.695312 71.292969 34.65625 C 71.28125 34.648438 71.265625 34.644531 71.253906 34.640625 C 71.089844 34.582031 70.929688 34.558594 70.773438 34.480469 C 70.589844 34.386719 70.457031 34.210938 70.328125 34.050781 C 70.105469 33.773438 69.882812 33.4375 69.882812 33.066406 C 69.886719 32.886719 69.949219 32.703125 70.09375 32.628906 C 69.8125 32.492188 69.5625 32.335938 69.316406 32.136719 C 69.085938 31.949219 68.839844 31.777344 68.671875 31.53125 C 68.566406 31.804688 68.484375 32.097656 68.320312 32.339844 C 68.214844 32.5 68.109375 32.660156 68.003906 32.820312 C 67.753906 33.207031 67.5 33.589844 67.269531 33.984375 C 67.105469 34.265625 67.183594 34.804688 66.859375 34.972656 C 66.953125 35.140625 66.984375 35.34375 66.914062 35.53125 C 66.835938 35.742188 66.585938 35.738281 66.4375 35.613281 C 66.433594 35.617188 66.433594 35.625 66.429688 35.628906 C 66.375 35.71875 66.261719 35.753906 66.160156 35.757812 C 66.015625 35.765625 65.890625 35.671875 65.824219 35.550781 C 65.800781 35.574219 65.773438 35.597656 65.746094 35.617188 C 65.574219 35.734375 65.433594 35.578125 65.371094 35.425781 C 65.253906 35.128906 65.433594 34.898438 65.679688 34.773438 C 65.769531 34.597656 65.785156 34.40625 65.84375 34.21875 C 65.921875 33.980469 66 33.738281 66.089844 33.503906 C 66.207031 33.199219 66.289062 32.898438 66.355469 32.582031 C 66.414062 32.296875 66.472656 32.015625 66.535156 31.734375 C 66.570312 31.570312 66.589844 31.355469 66.675781 31.210938 C 66.679688 31.203125 66.6875 31.195312 66.691406 31.1875 C 66.753906 30.921875 66.773438 30.640625 66.726562 30.371094 C 66.671875 30.074219 66.5 29.804688 66.40625 29.519531 C 66.261719 29.566406 66.050781 29.546875 65.945312 29.523438 C 65.34375 29.382812 65.121094 28.816406 64.886719 28.296875 C 64.761719 28.011719 64.566406 27.761719 64.433594 27.480469 C 64.296875 27.1875 64.257812 26.828125 64.203125 26.511719 C 64.171875 26.3125 64.132812 26.136719 64.035156 25.957031 C 63.953125 25.804688 63.847656 25.667969 63.769531 25.511719 C 63.6875 25.355469 63.621094 25.195312 63.546875 25.035156 " fill-opacity="1" fill-rule="nonzero"/></g><g clip-path="url(#197dcf4c28)"><path fill="#623d2b" d="M 41.492188 33.503906 C 41.492188 33.503906 41.808594 31.257812 39.992188 29.121094 C 38.171875 26.984375 36.585938 28.039062 36.585938 28.039062 C 36.585938 28.039062 35.953125 27.167969 36.144531 26.691406 C 36.332031 26.21875 37.117188 25.515625 37.222656 24.6875 C 37.328125 23.859375 37.8125 22.761719 37.347656 22.742188 C 36.882812 22.71875 36.015625 25.347656 36.015625 25.347656 C 36.015625 25.347656 37.644531 20.917969 35.699219 23.363281 C 34.953125 24.296875 34.703125 25.71875 34.703125 25.71875 C 34.703125 25.71875 34.007812 25.886719 33.921875 26.074219 C 33.835938 26.257812 32.929688 26.527344 32.398438 27.292969 C 31.871094 28.058594 31.785156 28.308594 31.957031 28.617188 C 32.125 28.929688 32.78125 29.652344 33.265625 29.488281 L 33.5 29.796875 C 33.5 29.796875 32.949219 31.785156 34.875 33.316406 C 34.875 33.316406 35.148438 34.144531 35.023438 34.476562 C 34.894531 34.804688 34.449219 35.035156 34.449219 35.242188 C 34.449219 35.449219 34.9375 35.65625 35.421875 35.550781 C 35.910156 35.449219 35.675781 35.578125 35.675781 35.578125 C 35.675781 35.578125 37.179688 35.59375 37.371094 35.488281 C 37.558594 35.386719 37.558594 35.074219 37.558594 35.074219 C 37.558594 35.074219 37.875 35.46875 37.980469 35.425781 C 38.089844 35.386719 39.757812 35.773438 39.929688 35.578125 C 40.097656 35.386719 40.5 35.488281 40.5 35.488281 C 40.5 35.488281 41.027344 34.828125 41.195312 34.496094 C 41.367188 34.164062 41.457031 34.972656 42.148438 34.558594 C 42.839844 34.144531 42.910156 32.632812 41.492188 33.503906 " fill-opacity="1" fill-rule="nonzero"/></g><g clip-path="url(#8196109635)"><path fill="#623d2b" d="M 55.292969 20.398438 L 54.632812 20.46875 L 54.453125 20.1875 L 55.476562 18.867188 C 55.574219 18.914062 55.664062 18.957031 55.75 19 Z M 53.769531 13.398438 C 53.769531 13.613281 53.46875 13.613281 53.46875 13.398438 C 53.46875 13.183594 53.769531 13.183594 53.769531 13.398438 Z M 60.296875 20.019531 L 59.898438 19.832031 C 59.882812 19.824219 58.382812 19.097656 57.464844 17.332031 C 56.628906 15.726562 55.261719 15.871094 54.851562 14.507812 C 54.621094 13.757812 54.765625 13.640625 55.453125 13.078125 C 55.238281 12.949219 54.996094 12.835938 54.738281 12.914062 C 54.230469 12.269531 53.484375 12.441406 53.015625 12.980469 C 52.363281 13.730469 52.121094 15.8125 52.976562 17.175781 C 53.539062 18.070312 54.242188 18.277344 55.328125 18.796875 L 54.304688 20.113281 L 53.335938 20.699219 C 53.265625 20.742188 53.296875 20.859375 53.375 20.859375 C 53.410156 20.859375 54.304688 20.308594 54.332031 20.292969 C 54.78125 21 54.792969 21.066406 54.878906 21.003906 C 54.964844 20.945312 54.886719 20.867188 54.734375 20.625 L 55.328125 20.5625 C 55.894531 21.078125 55.929688 21.148438 55.996094 21.0625 C 56.066406 20.972656 55.996094 20.949219 55.445312 20.449219 L 55.894531 19.070312 C 56.496094 19.363281 56.945312 19.589844 57.25 19.785156 C 57.25 19.667969 57.253906 19.390625 57.171875 18.953125 C 57.574219 19.28125 58.535156 19.90625 59.859375 19.992188 L 60.296875 20.019531 " fill-opacity="1" fill-rule="nonzero"/></g><g fill="#4bad20" fill-opacity="1"><g transform="translate(38.915682, 46.785098)"><g><path d="M 1.5625 -1.59375 C 1.363281 -1.65625 1.1875 -1.71875 1.03125 -1.78125 C 0.875 -1.851562 0.738281 -1.9375 0.625 -2.03125 C 0.507812 -2.132812 0.421875 -2.25 0.359375 -2.375 C 0.296875 -2.507812 0.265625 -2.675781 0.265625 -2.875 C 0.265625 -3.25 0.40625 -3.546875 0.6875 -3.765625 C 0.976562 -3.992188 1.382812 -4.109375 1.90625 -4.109375 C 2.09375 -4.109375 2.265625 -4.09375 2.421875 -4.0625 C 2.585938 -4.039062 2.726562 -4 2.84375 -3.9375 C 2.96875 -3.882812 3.0625 -3.816406 3.125 -3.734375 C 3.1875 -3.648438 3.21875 -3.550781 3.21875 -3.4375 C 3.21875 -3.320312 3.191406 -3.222656 3.140625 -3.140625 C 3.085938 -3.054688 3.023438 -2.988281 2.953125 -2.9375 C 2.859375 -3 2.726562 -3.050781 2.5625 -3.09375 C 2.40625 -3.144531 2.226562 -3.171875 2.03125 -3.171875 C 1.832031 -3.171875 1.6875 -3.140625 1.59375 -3.078125 C 1.5 -3.023438 1.453125 -2.957031 1.453125 -2.875 C 1.453125 -2.8125 1.476562 -2.757812 1.53125 -2.71875 C 1.59375 -2.675781 1.679688 -2.632812 1.796875 -2.59375 L 2.15625 -2.484375 C 2.5625 -2.347656 2.875 -2.175781 3.09375 -1.96875 C 3.320312 -1.769531 3.4375 -1.492188 3.4375 -1.140625 C 3.4375 -0.773438 3.285156 -0.472656 2.984375 -0.234375 C 2.691406 -0.00390625 2.257812 0.109375 1.6875 0.109375 C 1.488281 0.109375 1.300781 0.0859375 1.125 0.046875 C 0.957031 0.015625 0.804688 -0.03125 0.671875 -0.09375 C 0.546875 -0.15625 0.445312 -0.234375 0.375 -0.328125 C 0.300781 -0.421875 0.265625 -0.53125 0.265625 -0.65625 C 0.265625 -0.78125 0.300781 -0.882812 0.375 -0.96875 C 0.445312 -1.0625 0.53125 -1.132812 0.625 -1.1875 C 0.738281 -1.09375 0.882812 -1.007812 1.0625 -0.9375 C 1.25 -0.863281 1.445312 -0.828125 1.65625 -0.828125 C 1.875 -0.828125 2.023438 -0.859375 2.109375 -0.921875 C 2.191406 -0.992188 2.234375 -1.070312 2.234375 -1.15625 C 2.234375 -1.25 2.195312 -1.316406 2.125 -1.359375 C 2.0625 -1.410156 1.96875 -1.457031 1.84375 -1.5 Z M 1.5625 -1.59375 "/></g></g></g><g fill="#4bad20" fill-opacity="1"><g transform="translate(42.544068, 46.785098)"><g><path d="M 1.28125 -3.875 C 1.351562 -3.914062 1.460938 -3.957031 1.609375 -4 C 1.765625 -4.039062 1.921875 -4.0625 2.078125 -4.0625 C 2.296875 -4.0625 2.488281 -4.03125 2.65625 -3.96875 C 2.832031 -3.90625 2.941406 -3.804688 2.984375 -3.671875 C 3.066406 -3.441406 3.148438 -3.171875 3.234375 -2.859375 C 3.328125 -2.554688 3.421875 -2.242188 3.515625 -1.921875 C 3.609375 -1.597656 3.695312 -1.28125 3.78125 -0.96875 C 3.875 -0.65625 3.953125 -0.378906 4.015625 -0.140625 C 3.960938 -0.078125 3.882812 -0.03125 3.78125 0 C 3.675781 0.0390625 3.550781 0.0625 3.40625 0.0625 C 3.300781 0.0625 3.210938 0.0507812 3.140625 0.03125 C 3.066406 0.0195312 3.003906 0 2.953125 -0.03125 C 2.910156 -0.0703125 2.875 -0.117188 2.84375 -0.171875 C 2.820312 -0.234375 2.800781 -0.300781 2.78125 -0.375 L 2.65625 -0.828125 L 1.46875 -0.828125 C 1.425781 -0.703125 1.390625 -0.566406 1.359375 -0.421875 C 1.328125 -0.285156 1.289062 -0.148438 1.25 -0.015625 C 1.1875 0.00390625 1.117188 0.0195312 1.046875 0.03125 C 0.984375 0.0507812 0.90625 0.0625 0.8125 0.0625 C 0.582031 0.0625 0.414062 0.0234375 0.3125 -0.046875 C 0.207031 -0.128906 0.15625 -0.238281 0.15625 -0.375 C 0.15625 -0.4375 0.160156 -0.492188 0.171875 -0.546875 C 0.191406 -0.609375 0.210938 -0.679688 0.234375 -0.765625 C 0.265625 -0.890625 0.304688 -1.039062 0.359375 -1.21875 C 0.421875 -1.394531 0.484375 -1.582031 0.546875 -1.78125 C 0.609375 -1.988281 0.675781 -2.195312 0.75 -2.40625 C 0.832031 -2.625 0.90625 -2.828125 0.96875 -3.015625 C 1.03125 -3.210938 1.085938 -3.382812 1.140625 -3.53125 C 1.203125 -3.6875 1.25 -3.800781 1.28125 -3.875 Z M 2.078125 -3.03125 C 2.015625 -2.84375 1.941406 -2.632812 1.859375 -2.40625 C 1.785156 -2.1875 1.71875 -1.957031 1.65625 -1.71875 L 2.46875 -1.71875 C 2.40625 -1.957031 2.34375 -2.1875 2.28125 -2.40625 C 2.21875 -2.632812 2.160156 -2.84375 2.109375 -3.03125 Z M 2.078125 -3.03125 "/></g></g></g><g fill="#4bad20" fill-opacity="1"><g transform="translate(46.672924, 46.785098)"><g><path d="M 2.828125 -0.125 C 2.765625 -0.0703125 2.664062 -0.03125 2.53125 0 C 2.40625 0.0390625 2.265625 0.0625 2.109375 0.0625 C 1.921875 0.0625 1.757812 0.0351562 1.625 -0.015625 C 1.5 -0.0664062 1.410156 -0.144531 1.359375 -0.25 C 1.316406 -0.34375 1.257812 -0.46875 1.1875 -0.625 C 1.113281 -0.789062 1.035156 -0.972656 0.953125 -1.171875 C 0.878906 -1.367188 0.800781 -1.578125 0.71875 -1.796875 C 0.644531 -2.023438 0.566406 -2.253906 0.484375 -2.484375 C 0.410156 -2.710938 0.34375 -2.9375 0.28125 -3.15625 C 0.21875 -3.375 0.160156 -3.578125 0.109375 -3.765625 C 0.171875 -3.828125 0.257812 -3.882812 0.375 -3.9375 C 0.488281 -3.988281 0.613281 -4.015625 0.75 -4.015625 C 0.914062 -4.015625 1.050781 -3.976562 1.15625 -3.90625 C 1.257812 -3.84375 1.332031 -3.71875 1.375 -3.53125 C 1.5 -3.101562 1.617188 -2.691406 1.734375 -2.296875 C 1.859375 -1.898438 1.984375 -1.488281 2.109375 -1.0625 L 2.15625 -1.0625 C 2.269531 -1.476562 2.390625 -1.929688 2.515625 -2.421875 C 2.640625 -2.910156 2.757812 -3.394531 2.875 -3.875 C 2.957031 -3.914062 3.039062 -3.945312 3.125 -3.96875 C 3.21875 -4 3.320312 -4.015625 3.4375 -4.015625 C 3.601562 -4.015625 3.742188 -3.976562 3.859375 -3.90625 C 3.972656 -3.832031 4.03125 -3.710938 4.03125 -3.546875 C 4.03125 -3.453125 4.003906 -3.3125 3.953125 -3.125 C 3.910156 -2.9375 3.851562 -2.726562 3.78125 -2.5 C 3.707031 -2.269531 3.625 -2.03125 3.53125 -1.78125 C 3.445312 -1.53125 3.359375 -1.289062 3.265625 -1.0625 C 3.171875 -0.84375 3.082031 -0.648438 3 -0.484375 C 2.925781 -0.316406 2.867188 -0.195312 2.828125 -0.125 Z M 2.828125 -0.125 "/></g></g></g><g fill="#4bad20" fill-opacity="1"><g transform="translate(50.847873, 46.785098)"><g><path d="M 1.578125 -0.03125 C 1.535156 -0.0078125 1.460938 0.00390625 1.359375 0.015625 C 1.253906 0.0234375 1.148438 0.03125 1.046875 0.03125 C 0.941406 0.03125 0.851562 0.0195312 0.78125 0 C 0.707031 -0.0078125 0.640625 -0.03125 0.578125 -0.0625 C 0.523438 -0.101562 0.484375 -0.160156 0.453125 -0.234375 C 0.429688 -0.304688 0.421875 -0.398438 0.421875 -0.515625 L 0.421875 -4 C 0.472656 -4.007812 0.550781 -4.019531 0.65625 -4.03125 C 0.757812 -4.050781 0.863281 -4.0625 0.96875 -4.0625 C 1.0625 -4.0625 1.144531 -4.050781 1.21875 -4.03125 C 1.300781 -4.019531 1.367188 -3.992188 1.421875 -3.953125 C 1.472656 -3.910156 1.507812 -3.851562 1.53125 -3.78125 C 1.5625 -3.707031 1.578125 -3.617188 1.578125 -3.515625 Z M 1.578125 -0.03125 "/></g></g></g><g fill="#4bad20" fill-opacity="1"><g transform="translate(52.856328, 46.785098)"><g><path d="M 4.046875 -0.140625 C 3.984375 -0.078125 3.894531 -0.03125 3.78125 0 C 3.664062 0.03125 3.523438 0.046875 3.359375 0.046875 C 3.203125 0.046875 3.050781 0.0234375 2.90625 -0.015625 C 2.757812 -0.0664062 2.640625 -0.1875 2.546875 -0.375 L 1.890625 -1.703125 C 1.828125 -1.835938 1.769531 -1.960938 1.71875 -2.078125 C 1.664062 -2.203125 1.609375 -2.34375 1.546875 -2.5 L 1.5 -2.5 C 1.519531 -2.257812 1.53125 -2.015625 1.53125 -1.765625 C 1.53125 -1.523438 1.53125 -1.285156 1.53125 -1.046875 L 1.53125 -0.03125 C 1.488281 -0.0078125 1.414062 0.00390625 1.3125 0.015625 C 1.21875 0.0234375 1.117188 0.03125 1.015625 0.03125 C 0.921875 0.03125 0.835938 0.0234375 0.765625 0.015625 C 0.691406 0.00390625 0.628906 -0.0195312 0.578125 -0.0625 C 0.523438 -0.101562 0.484375 -0.15625 0.453125 -0.21875 C 0.429688 -0.289062 0.421875 -0.382812 0.421875 -0.5 L 0.421875 -3.796875 C 0.484375 -3.878906 0.578125 -3.941406 0.703125 -3.984375 C 0.835938 -4.035156 0.976562 -4.0625 1.125 -4.0625 C 1.28125 -4.0625 1.429688 -4.035156 1.578125 -3.984375 C 1.734375 -3.929688 1.851562 -3.816406 1.9375 -3.640625 L 2.59375 -2.296875 C 2.664062 -2.160156 2.726562 -2.03125 2.78125 -1.90625 C 2.832031 -1.789062 2.890625 -1.65625 2.953125 -1.5 L 2.984375 -1.5 C 2.960938 -1.738281 2.945312 -1.976562 2.9375 -2.21875 C 2.9375 -2.457031 2.9375 -2.691406 2.9375 -2.921875 L 2.9375 -4 C 2.988281 -4.007812 3.0625 -4.019531 3.15625 -4.03125 C 3.257812 -4.050781 3.359375 -4.0625 3.453125 -4.0625 C 3.648438 -4.0625 3.796875 -4.023438 3.890625 -3.953125 C 3.992188 -3.878906 4.046875 -3.738281 4.046875 -3.53125 Z M 4.046875 -0.140625 "/></g></g></g><g fill="#4bad20" fill-opacity="1"><g transform="translate(57.327607, 46.785098)"><g><path d="M 4.046875 -0.65625 C 4.046875 -0.519531 4.019531 -0.414062 3.96875 -0.34375 C 3.925781 -0.28125 3.851562 -0.21875 3.75 -0.15625 C 3.6875 -0.125 3.609375 -0.0859375 3.515625 -0.046875 C 3.421875 -0.015625 3.316406 0.0078125 3.203125 0.03125 C 3.097656 0.0507812 2.984375 0.0664062 2.859375 0.078125 C 2.742188 0.0976562 2.625 0.109375 2.5 0.109375 C 2.1875 0.109375 1.890625 0.0664062 1.609375 -0.015625 C 1.335938 -0.109375 1.097656 -0.238281 0.890625 -0.40625 C 0.691406 -0.582031 0.53125 -0.800781 0.40625 -1.0625 C 0.289062 -1.320312 0.234375 -1.625 0.234375 -1.96875 C 0.234375 -2.320312 0.296875 -2.632812 0.421875 -2.90625 C 0.554688 -3.175781 0.726562 -3.398438 0.9375 -3.578125 C 1.15625 -3.753906 1.398438 -3.882812 1.671875 -3.96875 C 1.941406 -4.0625 2.222656 -4.109375 2.515625 -4.109375 C 2.929688 -4.109375 3.257812 -4.039062 3.5 -3.90625 C 3.75 -3.769531 3.875 -3.59375 3.875 -3.375 C 3.875 -3.269531 3.84375 -3.171875 3.78125 -3.078125 C 3.726562 -2.992188 3.664062 -2.929688 3.59375 -2.890625 C 3.476562 -2.953125 3.335938 -3.015625 3.171875 -3.078125 C 3.015625 -3.140625 2.832031 -3.171875 2.625 -3.171875 C 2.257812 -3.171875 1.96875 -3.066406 1.75 -2.859375 C 1.53125 -2.648438 1.421875 -2.359375 1.421875 -1.984375 C 1.421875 -1.785156 1.445312 -1.609375 1.5 -1.453125 C 1.5625 -1.304688 1.644531 -1.1875 1.75 -1.09375 C 1.851562 -1 1.96875 -0.925781 2.09375 -0.875 C 2.226562 -0.832031 2.367188 -0.8125 2.515625 -0.8125 C 2.609375 -0.8125 2.691406 -0.820312 2.765625 -0.84375 C 2.847656 -0.863281 2.910156 -0.882812 2.953125 -0.90625 L 2.953125 -1.515625 L 2.234375 -1.515625 C 2.210938 -1.566406 2.1875 -1.628906 2.15625 -1.703125 C 2.132812 -1.785156 2.125 -1.875 2.125 -1.96875 C 2.125 -2.125 2.160156 -2.234375 2.234375 -2.296875 C 2.304688 -2.367188 2.398438 -2.40625 2.515625 -2.40625 L 3.640625 -2.40625 C 3.765625 -2.40625 3.863281 -2.367188 3.9375 -2.296875 C 4.007812 -2.234375 4.046875 -2.132812 4.046875 -2 Z M 4.046875 -0.65625 "/></g></g></g><g fill="#4bad20" fill-opacity="1"><g transform="translate(61.70011, 46.785098)"><g/></g></g><g fill="#4bad20" fill-opacity="1"><g transform="translate(63.01713, 46.785098)"><g><path d="M 1.921875 -2.140625 C 2.109375 -2.140625 2.25 -2.179688 2.34375 -2.265625 C 2.445312 -2.359375 2.5 -2.488281 2.5 -2.65625 C 2.5 -2.832031 2.445312 -2.960938 2.34375 -3.046875 C 2.238281 -3.140625 2.085938 -3.1875 1.890625 -3.1875 C 1.816406 -3.1875 1.753906 -3.179688 1.703125 -3.171875 C 1.660156 -3.171875 1.617188 -3.171875 1.578125 -3.171875 L 1.578125 -2.140625 Z M 1.578125 -0.03125 C 1.535156 -0.0078125 1.460938 0.00390625 1.359375 0.015625 C 1.253906 0.0234375 1.148438 0.03125 1.046875 0.03125 C 0.941406 0.03125 0.851562 0.0195312 0.78125 0 C 0.707031 -0.0078125 0.640625 -0.03125 0.578125 -0.0625 C 0.523438 -0.101562 0.484375 -0.160156 0.453125 -0.234375 C 0.429688 -0.304688 0.421875 -0.398438 0.421875 -0.515625 L 0.421875 -3.625 C 0.421875 -3.71875 0.445312 -3.785156 0.5 -3.828125 C 0.550781 -3.878906 0.625 -3.921875 0.71875 -3.953125 C 0.863281 -4.003906 1.03125 -4.039062 1.21875 -4.0625 C 1.414062 -4.09375 1.609375 -4.109375 1.796875 -4.109375 C 2.398438 -4.109375 2.863281 -3.976562 3.1875 -3.71875 C 3.507812 -3.457031 3.671875 -3.101562 3.671875 -2.65625 C 3.671875 -2.445312 3.632812 -2.253906 3.5625 -2.078125 C 3.5 -1.898438 3.398438 -1.75 3.265625 -1.625 C 3.128906 -1.5 2.957031 -1.398438 2.75 -1.328125 C 2.550781 -1.265625 2.316406 -1.234375 2.046875 -1.234375 L 1.578125 -1.234375 Z M 1.578125 -0.03125 "/></g></g></g><g fill="#4bad20" fill-opacity="1"><g transform="translate(66.843071, 46.785098)"><g><path d="M 0.421875 -3.375 C 0.421875 -3.570312 0.476562 -3.722656 0.59375 -3.828125 C 0.707031 -3.941406 0.859375 -4 1.046875 -4 L 3.21875 -4 C 3.25 -3.945312 3.273438 -3.878906 3.296875 -3.796875 C 3.328125 -3.722656 3.34375 -3.640625 3.34375 -3.546875 C 3.34375 -3.378906 3.304688 -3.257812 3.234375 -3.1875 C 3.160156 -3.125 3.0625 -3.09375 2.9375 -3.09375 L 1.546875 -3.09375 L 1.546875 -2.484375 L 3.03125 -2.484375 C 3.0625 -2.429688 3.085938 -2.363281 3.109375 -2.28125 C 3.140625 -2.207031 3.15625 -2.128906 3.15625 -2.046875 C 3.15625 -1.878906 3.117188 -1.757812 3.046875 -1.6875 C 2.972656 -1.613281 2.878906 -1.578125 2.765625 -1.578125 L 1.546875 -1.578125 L 1.546875 -0.890625 L 3.25 -0.890625 C 3.28125 -0.835938 3.304688 -0.769531 3.328125 -0.6875 C 3.347656 -0.613281 3.359375 -0.535156 3.359375 -0.453125 C 3.359375 -0.285156 3.320312 -0.164062 3.25 -0.09375 C 3.175781 -0.0195312 3.082031 0.015625 2.96875 0.015625 L 1.046875 0.015625 C 0.859375 0.015625 0.707031 -0.0351562 0.59375 -0.140625 C 0.476562 -0.253906 0.421875 -0.40625 0.421875 -0.59375 Z M 0.421875 -3.375 "/></g></g></g><g fill="#4bad20" fill-opacity="1"><g transform="translate(70.451702, 46.785098)"><g><path d="M 0.25 -3.078125 C 0.21875 -3.117188 0.1875 -3.179688 0.15625 -3.265625 C 0.132812 -3.347656 0.125 -3.4375 0.125 -3.53125 C 0.125 -3.707031 0.160156 -3.832031 0.234375 -3.90625 C 0.304688 -3.976562 0.40625 -4.015625 0.53125 -4.015625 L 3.40625 -4.015625 C 3.4375 -3.960938 3.460938 -3.894531 3.484375 -3.8125 C 3.515625 -3.726562 3.53125 -3.640625 3.53125 -3.546875 C 3.53125 -3.378906 3.488281 -3.257812 3.40625 -3.1875 C 3.332031 -3.113281 3.238281 -3.078125 3.125 -3.078125 L 2.390625 -3.078125 L 2.390625 -0.03125 C 2.335938 -0.0078125 2.257812 0.00390625 2.15625 0.015625 C 2.050781 0.0234375 1.953125 0.03125 1.859375 0.03125 C 1.753906 0.03125 1.660156 0.0195312 1.578125 0 C 1.503906 -0.0078125 1.441406 -0.03125 1.390625 -0.0625 C 1.335938 -0.101562 1.296875 -0.160156 1.265625 -0.234375 C 1.242188 -0.304688 1.234375 -0.398438 1.234375 -0.515625 L 1.234375 -3.078125 Z M 0.25 -3.078125 "/></g></g></g><g fill="#4bad20" fill-opacity="1"><g transform="translate(74.113015, 46.785098)"><g><path d="M 1.5625 -1.59375 C 1.363281 -1.65625 1.1875 -1.71875 1.03125 -1.78125 C 0.875 -1.851562 0.738281 -1.9375 0.625 -2.03125 C 0.507812 -2.132812 0.421875 -2.25 0.359375 -2.375 C 0.296875 -2.507812 0.265625 -2.675781 0.265625 -2.875 C 0.265625 -3.25 0.40625 -3.546875 0.6875 -3.765625 C 0.976562 -3.992188 1.382812 -4.109375 1.90625 -4.109375 C 2.09375 -4.109375 2.265625 -4.09375 2.421875 -4.0625 C 2.585938 -4.039062 2.726562 -4 2.84375 -3.9375 C 2.96875 -3.882812 3.0625 -3.816406 3.125 -3.734375 C 3.1875 -3.648438 3.21875 -3.550781 3.21875 -3.4375 C 3.21875 -3.320312 3.191406 -3.222656 3.140625 -3.140625 C 3.085938 -3.054688 3.023438 -2.988281 2.953125 -2.9375 C 2.859375 -3 2.726562 -3.050781 2.5625 -3.09375 C 2.40625 -3.144531 2.226562 -3.171875 2.03125 -3.171875 C 1.832031 -3.171875 1.6875 -3.140625 1.59375 -3.078125 C 1.5 -3.023438 1.453125 -2.957031 1.453125 -2.875 C 1.453125 -2.8125 1.476562 -2.757812 1.53125 -2.71875 C 1.59375 -2.675781 1.679688 -2.632812 1.796875 -2.59375 L 2.15625 -2.484375 C 2.5625 -2.347656 2.875 -2.175781 3.09375 -1.96875 C 3.320312 -1.769531 3.4375 -1.492188 3.4375 -1.140625 C 3.4375 -0.773438 3.285156 -0.472656 2.984375 -0.234375 C 2.691406 -0.00390625 2.257812 0.109375 1.6875 0.109375 C 1.488281 0.109375 1.300781 0.0859375 1.125 0.046875 C 0.957031 0.015625 0.804688 -0.03125 0.671875 -0.09375 C 0.546875 -0.15625 0.445312 -0.234375 0.375 -0.328125 C 0.300781 -0.421875 0.265625 -0.53125 0.265625 -0.65625 C 0.265625 -0.78125 0.300781 -0.882812 0.375 -0.96875 C 0.445312 -1.0625 0.53125 -1.132812 0.625 -1.1875 C 0.738281 -1.09375 0.882812 -1.007812 1.0625 -0.9375 C 1.25 -0.863281 1.445312 -0.828125 1.65625 -0.828125 C 1.875 -0.828125 2.023438 -0.859375 2.109375 -0.921875 C 2.191406 -0.992188 2.234375 -1.070312 2.234375 -1.15625 C 2.234375 -1.25 2.195312 -1.316406 2.125 -1.359375 C 2.0625 -1.410156 1.96875 -1.457031 1.84375 -1.5 Z M 1.5625 -1.59375 "/></g></g></g></svg>